<svg width="23" height="23" viewBox="0 0 23 23" fill="none" xmlns="http://www.w3.org/2000/svg">
<path fill-rule="evenodd" clip-rule="evenodd" d="M11.5291 1.83457C11.5098 1.83287 11.4903 1.83287 11.4709 1.83457C11.4615 1.83539 11.4474 1.83686 11.2759 1.87497L2.64253 3.79349C2.36992 3.85407 2.20919 3.89032 2.09053 3.92599C2.0074 3.95098 1.97799 3.96652 1.97184 3.97023C1.96995 3.97137 1.97024 3.97138 1.97184 3.97023C1.92278 4.00558 1.88427 4.05361 1.86041 4.10916C1.86118 4.10735 1.86111 4.10708 1.86041 4.10916C1.85812 4.11598 1.84931 4.14805 1.84295 4.23462C1.83388 4.3582 1.83336 4.52296 1.83336 4.80222V6.10483C1.83336 6.44528 1.834 6.6505 1.84648 6.80324C1.8551 6.90876 1.86704 6.9485 1.87019 6.95715C1.90201 7.01909 1.95243 7.06951 2.01437 7.10133C2.02302 7.10448 2.06276 7.11642 2.16829 7.12504C2.32102 7.13752 2.52624 7.13817 2.86669 7.13817H20.1334C20.4738 7.13817 20.679 7.13752 20.8318 7.12504C20.9373 7.11642 20.977 7.10448 20.9857 7.10133C21.0476 7.06951 21.098 7.01909 21.1298 6.95716C21.133 6.94851 21.1449 6.90877 21.1536 6.80324C21.166 6.6505 21.1667 6.44528 21.1667 6.10483V4.80222C21.1667 4.52296 21.1662 4.3582 21.1571 4.23462C21.1507 4.14805 21.1419 4.11598 21.1397 4.10916C21.139 4.10707 21.1389 4.10735 21.1397 4.10916C21.1158 4.0536 21.0773 4.00559 21.0282 3.97024C21.035 3.97516 21.0181 3.95863 20.9095 3.92599C20.7909 3.89032 20.6301 3.85407 20.3575 3.79349L11.7242 1.87498C11.5527 1.83686 11.5385 1.83539 11.5291 1.83457ZM20.9876 7.10054C20.9876 7.10055 20.9869 7.10087 20.9857 7.10133ZM1.87098 6.95907C1.87097 6.95911 1.87065 6.9584 1.87019 6.95715ZM11.3253 0.174272C11.4416 0.164077 11.5585 0.164077 11.6747 0.174272C11.8075 0.185914 11.9348 0.214321 12.0567 0.241526C12.0664 0.243694 12.0761 0.245853 12.0857 0.247997L20.7439 2.17204C20.9834 2.22523 21.2048 2.27443 21.3893 2.32987C21.5901 2.39024 21.8009 2.47281 22.0024 2.61796C22.2968 2.83002 22.5279 3.11815 22.6711 3.45149C22.769 3.67967 22.8039 3.90337 22.8193 4.11254C22.8334 4.30459 22.8334 4.53147 22.8334 4.77674V6.13438C22.8334 6.43571 22.8334 6.71007 22.8147 6.93896C22.7946 7.18504 22.7488 7.45098 22.6154 7.71281C22.4236 8.08914 22.1177 8.3951 21.7413 8.58685C21.4795 8.72026 21.2136 8.76606 20.9675 8.78617C20.8273 8.79762 20.6701 8.80206 20.5 8.80377V16.4726C20.6701 16.4743 20.8273 16.4787 20.9675 16.4902C21.2136 16.5103 21.4795 16.5561 21.7413 16.6895C22.1177 16.8812 22.4236 17.1872 22.6154 17.5635C22.7488 17.8254 22.7946 18.0913 22.8147 18.3374C22.8334 18.5663 22.8334 18.8406 22.8334 19.142V20.1344C22.8334 20.4357 22.8334 20.7101 22.8147 20.939C22.7946 21.185 22.7488 21.451 22.6154 21.7128C22.4236 22.0891 22.1177 22.3951 21.7413 22.5868C21.4795 22.7203 21.2136 22.7661 20.9675 22.7862C20.7386 22.8049 20.4642 22.8049 20.1629 22.8048H2.83722C2.53586 22.8049 2.26148 22.8049 2.03256 22.7862C1.78649 22.7661 1.52055 22.7203 1.25871 22.5868C0.882385 22.3951 0.576424 22.0891 0.384676 21.7128C0.251263 21.451 0.205457 21.185 0.185352 20.939C0.166651 20.7101 0.166669 20.4357 0.166688 20.1344L0.166688 19.142C0.166669 18.8406 0.166651 18.5663 0.185352 18.3374C0.205458 18.0913 0.251263 17.8254 0.384677 17.5635C0.576424 17.1872 0.882385 16.8812 1.25871 16.6895C1.52055 16.5561 1.78649 16.5103 2.03257 16.4902C2.17275 16.4787 2.32998 16.4743 2.50002 16.4726V8.80377C2.32998 8.80206 2.17275 8.79762 2.03256 8.78617C1.78649 8.76606 1.52055 8.72026 1.25871 8.58685C0.882384 8.3951 0.576423 8.08914 0.384676 7.71281C0.251263 7.45097 0.205457 7.18503 0.185352 6.93896C0.166651 6.71006 0.166669 6.4357 0.166688 6.13436L0.166688 4.77677C0.166672 4.53149 0.166656 4.3046 0.180763 4.11254C0.196125 3.90337 0.230997 3.67966 0.328988 3.45149C0.472144 3.11815 0.70327 2.83002 0.997619 2.61796C1.1991 2.47281 1.40992 2.39024 1.61078 2.32986C1.79521 2.27443 2.0167 2.22523 2.25615 2.17203C2.2644 2.1702 2.27268 2.16836 2.28098 2.16651L10.9143 0.247997C10.924 0.245854 10.9336 0.243694 10.9433 0.241527C11.0652 0.214321 11.1925 0.185915 11.3253 0.174272ZM4.16669 8.80483V16.4715H7.75002V8.80483H4.16669ZM9.41669 8.80483V16.4715H13.5834V8.80483H9.41669ZM15.25 8.80483V16.4715H18.8334V8.80483H15.25ZM2.86669 18.1382C2.52624 18.1382 2.32102 18.1388 2.16829 18.1513C2.06277 18.1599 2.02302 18.1719 2.01437 18.175C1.95243 18.2068 1.90201 18.2572 1.87019 18.3192C1.86704 18.3278 1.8551 18.3676 1.84648 18.4731C1.834 18.6258 1.83336 18.8311 1.83336 19.1715V20.1048C1.83336 20.4453 1.834 20.6505 1.84648 20.8032C1.85511 20.9088 1.86704 20.9485 1.8702 20.9572C1.90201 21.0191 1.95243 21.0695 2.01437 21.1013C2.02303 21.1045 2.06277 21.1164 2.16828 21.125C2.32102 21.1375 2.52624 21.1382 2.86669 21.1382H20.1334C20.4738 21.1382 20.679 21.1375 20.8318 21.125C20.9373 21.1164 20.977 21.1045 20.9857 21.1013C21.0476 21.0695 21.098 21.0191 21.1299 20.9571C21.133 20.9485 21.1449 20.9087 21.1536 20.8032C21.166 20.6505 21.1667 20.4453 21.1667 20.1048V19.1715C21.1667 18.8311 21.166 18.6258 21.1536 18.4731C21.1449 18.3676 21.133 18.3278 21.1299 18.3192C21.098 18.2572 21.0476 18.2068 20.9857 18.175C20.977 18.1718 20.9373 18.1599 20.8318 18.1513C20.679 18.1388 20.4738 18.1382 20.1334 18.1382H2.86669ZM20.9876 21.1005C20.9876 21.1005 20.9869 21.1009 20.9857 21.1013ZM1.87098 20.9591C1.87097 20.9591 1.87065 20.9584 1.8702 20.9572ZM2.01246 18.1758C2.01242 18.1758 2.01312 18.1755 2.01437 18.175Z" fill="#2362FB"/>
</svg>
