<?xml version="1.0" encoding="utf-8"?>
<!-- Generator: Adobe Illustrator 26.2.1, SVG Export Plug-In . SVG Version: 6.00 Build 0)  -->
<svg version="1.1" id="Layer_1" xmlns="http://www.w3.org/2000/svg" xmlns:xlink="http://www.w3.org/1999/xlink" x="0px" y="0px"
	 viewBox="0 0 20 20" style="enable-background:new 0 0 20 20;" xml:space="preserve">
<style type="text/css">
	.st0{fill-rule:evenodd;clip-rule:evenodd;fill:#333239;}
</style>
<path class="st0" d="M8.7,0.4C9.1,0.1,9.5,0,10,0s0.9,0.1,1.3,0.4l0,0L17.6,4C18.9,4.7,19,5.9,19,6.3v7.2c0,0.5-0.1,0.9-0.4,1.4
	c-0.2,0.4-0.6,0.8-1,1l0,0l-6.3,3.6l0,0c-1.4,0.7-1.8,0.5-2.6,0.1l0,0L2.4,16l0,0c-0.4-0.2-0.8-0.6-1-1C1.2,14.6,1,14.1,1,13.6V6.3
	C1,5.9,1,4.8,2.3,4l0,0l2.9-1.7C5.4,2.2,5.6,2.1,5.8,2L8.7,0.4z M6,4L3.7,5.3L10,8.9l2.3-1.3L6,4z M14.1,6.6L7.8,2.9l1.7-1l0,0
	c0.4-0.3,0.7-0.2,1,0l5.8,3.3L14.1,6.6z M17.2,6.8l-6.3,3.7v7.2l5.9-3.4l0,0c0.4-0.2,0.4-0.5,0.4-0.8V6.8z M9.1,17.7v-7.2L2.8,6.8
	v6.8c0,0.6,0.3,0.7,0.4,0.8l0,0L9.1,17.7z"/>
</svg>
