<svg width="23" height="26" viewBox="0 0 23 26" fill="none" xmlns="http://www.w3.org/2000/svg">
<path fill-rule="evenodd" clip-rule="evenodd" d="M6.83335 0.166687C7.29359 0.166687 7.66669 0.539783 7.66669 1.00002V2.50002H15.3334V1.00002C15.3334 0.539783 15.7064 0.166687 16.1667 0.166687C16.6269 0.166687 17 0.539783 17 1.00002V2.50046C17.6942 2.50216 18.2764 2.51041 18.7667 2.55047C19.4018 2.60237 19.9559 2.71175 20.4673 2.97233C21.2827 3.38778 21.9456 4.05069 22.361 4.86606C22.6216 5.37746 22.731 5.93153 22.7829 6.5667C22.8334 7.18438 22.8334 7.94781 22.8334 8.89747V18.7692C22.8334 19.7189 22.8334 20.4823 22.7829 21.1C22.731 21.7352 22.6216 22.2892 22.361 22.8006C21.9456 23.616 21.2827 24.2789 20.4673 24.6944C19.9559 24.955 19.4018 25.0643 18.7667 25.1162C18.149 25.1667 17.3856 25.1667 16.4359 25.1667H6.56414C5.61448 25.1667 4.85105 25.1667 4.23337 25.1162C3.5982 25.0643 3.04413 24.955 2.53273 24.6944C1.71736 24.2789 1.05444 23.616 0.638993 22.8006C0.37842 22.2892 0.269035 21.7352 0.21714 21.1C0.166673 20.4823 0.166679 19.7189 0.166687 18.7692V8.8975C0.166679 7.94782 0.166673 7.18438 0.21714 6.5667C0.269035 5.93153 0.37842 5.37746 0.638993 4.86606C1.05444 4.05069 1.71736 3.38778 2.53273 2.97233C3.04413 2.71175 3.5982 2.60237 4.23337 2.55047C4.72367 2.51041 5.3058 2.50216 6.00002 2.50046V1.00002C6.00002 0.539783 6.37312 0.166687 6.83335 0.166687ZM6.00002 4.1672C5.31485 4.16897 4.79464 4.17683 4.36909 4.2116C3.83699 4.25508 3.52667 4.33643 3.28938 4.45734C2.78761 4.713 2.37967 5.12095 2.124 5.62271C2.0031 5.86 1.92175 6.17032 1.87827 6.70242C1.834 7.24425 1.83335 7.93951 1.83335 8.93335V9.50002H21.1667V8.93335C21.1667 7.93951 21.166 7.24425 21.1218 6.70242C21.0783 6.17032 20.9969 5.86 20.876 5.62271C20.6204 5.12095 20.2124 4.713 19.7107 4.45734C19.4734 4.33643 19.1631 4.25508 18.631 4.2116C18.2054 4.17683 17.6852 4.16897 17 4.1672V5.66669C17 6.12692 16.6269 6.50002 16.1667 6.50002C15.7064 6.50002 15.3334 6.12692 15.3334 5.66669V4.16669H7.66669V5.66669C7.66669 6.12692 7.29359 6.50002 6.83335 6.50002C6.37312 6.50002 6.00002 6.12692 6.00002 5.66669V4.1672ZM21.1667 11.1667H1.83335V18.7334C1.83335 19.7272 1.834 20.4225 1.87827 20.9643C1.92175 21.4964 2.0031 21.8067 2.124 22.044C2.37967 22.5458 2.78761 22.9537 3.28938 23.2094C3.52667 23.3303 3.83699 23.4116 4.36909 23.4551C4.91091 23.4994 5.60618 23.5 6.60002 23.5H16.4C17.3939 23.5 18.0891 23.4994 18.631 23.4551C19.1631 23.4116 19.4734 23.3303 19.7107 23.2094C20.2124 22.9537 20.6204 22.5458 20.876 22.044C20.9969 21.8067 21.0783 21.4964 21.1218 20.9643C21.166 20.4225 21.1667 19.7272 21.1667 18.7334V11.1667ZM16.1726 13.8274C16.498 14.1529 16.498 14.6805 16.1726 15.0059L10.9226 20.2559C10.5972 20.5814 10.0695 20.5814 9.7441 20.2559L7.41077 17.9226C7.08533 17.5972 7.08533 17.0695 7.41077 16.7441C7.7362 16.4187 8.26384 16.4187 8.58928 16.7441L10.3334 18.4882L14.9941 13.8274C15.3195 13.502 15.8472 13.502 16.1726 13.8274Z" fill="#2362FB"/>
</svg>
