<?xml version="1.0" encoding="utf-8"?>
<!-- Generator: Adobe Illustrator 26.0.3, SVG Export Plug-In . SVG Version: 6.00 Build 0)  -->
<svg version="1.1" id="Layer_1" xmlns="http://www.w3.org/2000/svg" xmlns:xlink="http://www.w3.org/1999/xlink" x="0px" y="0px"
	 viewBox="0 0 20 20" style="enable-background:new 0 0 20 20;" xml:space="preserve">
<style type="text/css">
	.st0{fill:#1D1D1B;}
</style>
<path class="st0" d="M1,20c-0.3,0-0.5-0.1-0.7-0.3c-0.3-0.3-0.4-0.7-0.2-1l1.8-5.3C1.3,12.2,1,10.8,1,9.5c0-1.8,0.5-3.5,1.4-5
	C3.3,3,4.7,1.8,6.3,1C7.6,0.3,9,0,10.5,0c0,0,0,0,0,0H11c2.4,0.1,4.6,1.1,6.2,2.8c1.7,1.7,2.6,3.8,2.8,6.2l0,0.6
	c0,1.5-0.3,2.9-1,4.3c-0.8,1.6-2,2.9-3.5,3.8c-1.5,0.9-3.2,1.4-5,1.4c-1.3,0-2.6-0.3-3.8-0.8l-5.3,1.8C1.2,20,1.1,20,1,20z M10.5,2
	C9.3,2,8.2,2.3,7.2,2.8c-1.3,0.6-2.3,1.6-3,2.8C3.4,6.7,3,8.1,3,9.5c0,1.2,0.3,2.3,0.8,3.3c0.1,0.2,0.1,0.5,0.1,0.8l-1.3,3.8
	l3.8-1.3c0.3-0.1,0.5-0.1,0.8,0.1c1,0.5,2.2,0.8,3.3,0.8c1.4,0,2.8-0.4,3.9-1.1c1.2-0.7,2.1-1.8,2.8-3c0.5-1,0.8-2.2,0.8-3.4
	c0,0,0,0,0,0V9c-0.1-1.8-0.9-3.5-2.2-4.8c-1.3-1.3-3-2.1-4.9-2.2L10.5,2C10.5,2,10.5,2,10.5,2z"/>
</svg>
