<svg width="26" height="26" viewBox="0 0 26 26" fill="none" xmlns="http://www.w3.org/2000/svg">
<path fill-rule="evenodd" clip-rule="evenodd" d="M5.07743 0.410704C5.40287 0.0852668 5.93051 0.0852668 6.25594 0.410704L8.58928 2.74404C8.91471 3.06947 8.91471 3.59711 8.58928 3.92255L6.25594 6.25588C5.93051 6.58132 5.40287 6.58132 5.07743 6.25588C4.75199 5.93044 4.75199 5.40281 5.07743 5.07737L5.98818 4.16663H5.66669C3.5496 4.16663 1.83335 5.88287 1.83335 7.99996C1.83335 8.4602 1.46026 8.83329 1.00002 8.83329C0.539783 8.83329 0.166687 8.4602 0.166687 7.99996C0.166687 4.96239 2.62912 2.49996 5.66669 2.49996H5.98818L5.07743 1.58921C4.75199 1.26378 4.75199 0.736141 5.07743 0.410704ZM9.50002 7.99996C9.50002 3.67373 13.0071 0.166626 17.3334 0.166626C21.6596 0.166626 25.1667 3.67373 25.1667 7.99996C25.1667 12.3262 21.6596 15.8333 17.3334 15.8333C16.7568 15.8333 16.1944 15.7709 15.6526 15.6524C15.771 16.1938 15.8334 16.7563 15.8334 17.3333C15.8334 21.6595 12.3263 25.1666 8.00002 25.1666C3.67379 25.1666 0.166687 21.6595 0.166687 17.3333C0.166687 13.0071 3.67379 9.49996 8.00002 9.49996C8.57703 9.49996 9.13946 9.56235 9.68095 9.68074C9.56243 9.13893 9.50002 8.57647 9.50002 7.99996ZM11.6515 10.4013C13.048 11.1384 14.1949 12.2853 14.932 13.6818C15.6692 13.9938 16.4801 14.1666 17.3334 14.1666C20.7391 14.1666 23.5 11.4057 23.5 7.99996C23.5 4.5942 20.7391 1.83329 17.3334 1.83329C13.9276 1.83329 11.1667 4.5942 11.1667 7.99996C11.1667 8.85318 11.3395 9.66416 11.6515 10.4013ZM8.00002 11.1666C4.59426 11.1666 1.83335 13.9275 1.83335 17.3333C1.83335 20.739 4.59426 23.5 8.00002 23.5C11.4058 23.5 14.1667 20.739 14.1667 17.3333C14.1667 13.9275 11.4058 11.1666 8.00002 11.1666ZM24.3334 16.5C24.7936 16.5 25.1667 16.8731 25.1667 17.3333C25.1667 20.3709 22.7043 22.8333 19.6667 22.8333H19.3452L20.2559 23.744C20.5814 24.0695 20.5814 24.5971 20.2559 24.9225C19.9305 25.248 19.4029 25.248 19.0774 24.9225L16.7441 22.5892C16.4187 22.2638 16.4187 21.7361 16.7441 21.4107L19.0774 19.0774C19.4029 18.7519 19.9305 18.7519 20.2559 19.0774C20.5814 19.4028 20.5814 19.9304 20.2559 20.2559L19.3452 21.1666H19.6667C21.7838 21.1666 23.5 19.4504 23.5 17.3333C23.5 16.8731 23.8731 16.5 24.3334 16.5Z" fill="#2362FB"/>
</svg>
