<svg width="26" height="26" viewBox="0 0 26 26" fill="none" xmlns="http://www.w3.org/2000/svg">
<path fill-rule="evenodd" clip-rule="evenodd" d="M3.17048 13.5492C3.18029 13.5492 3.19013 13.5492 3.2 13.5492L4.13334 13.5492C4.14321 13.5492 4.15305 13.5492 4.16287 13.5492C4.46421 13.5492 4.73857 13.5492 4.96746 13.5679C5.21354 13.588 5.47948 13.6338 5.74132 13.7672C6.11764 13.9589 6.4236 14.2649 6.61535 14.6412C6.74876 14.9031 6.79457 15.169 6.81467 15.4151C6.81689 15.4422 6.81885 15.4701 6.82057 15.4985L9.08781 14.5504L9.10228 14.5438C9.11931 14.5362 9.14367 14.5253 9.17466 14.5117C9.23659 14.4844 9.32517 14.446 9.43456 14.4002C9.65276 14.3088 9.95664 14.1867 10.2988 14.064C10.9454 13.8323 11.86 13.5492 12.5837 13.5492C13.1162 13.5492 13.646 13.6126 14.1631 13.738L16.9461 14.4148C18.1244 14.7008 18.9758 15.7407 18.9758 16.9599V17.3178C18.9758 17.3692 18.9743 17.4202 18.9714 17.4707L21.2322 15.8214C22.2906 15.0496 23.7686 15.1494 24.7086 16.0638C25.7633 17.0898 25.7643 18.7628 24.7086 19.7885M24.7086 19.7885L22.1915 22.2371C21.3961 23.0108 20.3844 23.5363 19.2878 23.75L15.7299 24.4422C14.9069 24.602 14.0578 24.5828 13.2425 24.3842L10.0252 23.6024L10.0233 23.6019C9.70409 23.5236 9.37619 23.4842 9.04534 23.4842H6.83086C6.82848 23.6155 6.82381 23.7382 6.81467 23.85C6.79457 24.0961 6.74876 24.362 6.61535 24.6238C6.4236 25.0002 6.11764 25.3061 5.74132 25.4979C5.47948 25.6313 5.21354 25.6771 4.96746 25.6972C4.73857 25.7159 4.46421 25.7159 4.16288 25.7159H3.1705C2.86915 25.7159 2.59478 25.7159 2.36588 25.6972C2.1198 25.6771 1.85386 25.6313 1.59202 25.4979C1.2157 25.3061 0.909737 25.0002 0.717989 24.6238C0.584576 24.362 0.53877 24.0961 0.518665 23.85C0.499964 23.6211 0.499982 23.3467 0.500001 23.0454L0.500003 16.2492C0.500003 16.2393 0.500002 16.2295 0.500001 16.2197C0.499982 15.9183 0.499964 15.644 0.518665 15.4151C0.538771 15.169 0.584576 14.9031 0.71799 14.6412C0.909736 14.2649 1.2157 13.9589 1.59202 13.7672C1.85386 13.6338 2.1198 13.588 2.36588 13.5679C2.59478 13.5492 2.86914 13.5492 3.17048 13.5492M6.83334 21.8175H9.04534C9.50825 21.8175 9.96925 21.8726 10.4196 21.9831L10.4206 21.9833L13.6365 22.7648C14.2175 22.9063 14.8238 22.9203 15.4118 22.8061L18.9691 22.114C19.7521 21.9615 20.4696 21.5869 21.0293 21.0424L23.5465 18.5939C23.928 18.2234 23.9292 17.6308 23.5465 17.2584C23.1921 16.9138 22.6205 16.8719 22.2145 17.1678L19.2815 19.3076C18.7165 19.7206 18.0326 19.9407 17.3326 19.9407H14.4998C14.0396 19.9407 13.6664 19.5676 13.6664 19.1073C13.6664 18.6471 14.0395 18.274 14.4997 18.274L16.3029 18.2739C16.8808 18.2739 17.3092 17.8246 17.3092 17.3178V16.9599C17.3092 16.5374 17.0117 16.1457 16.5534 16.0346L13.7703 15.3577C13.3818 15.2636 12.9835 15.2159 12.5837 15.2159C12.1817 15.2159 11.5148 15.3987 10.8612 15.633C10.5533 15.7433 10.2774 15.8542 10.0784 15.9375C9.97921 15.9791 9.89982 16.0135 9.84593 16.0372C9.819 16.049 9.7985 16.0582 9.78512 16.0642L9.77051 16.0708L9.7674 16.0722C9.7674 16.0722 7.17996 17.522 6.83334 16.7642M5.16667 16.7642V23.0159C5.16667 23.3563 5.16602 23.5615 5.15354 23.7143C5.14492 23.8198 5.13298 23.8595 5.12983 23.8682C5.09801 23.9301 5.0476 23.9805 4.98566 24.0124C4.97701 24.0155 4.93727 24.0274 4.83174 24.0361C4.679 24.0485 4.47378 24.0492 4.13334 24.0492H3.2C2.85956 24.0492 2.65434 24.0485 2.5016 24.0361C2.39607 24.0274 2.35633 24.0155 2.34768 24.0124C2.28574 23.9805 2.23533 23.9301 2.20351 23.8682C2.20035 23.8595 2.18842 23.8198 2.1798 23.7143C2.16732 23.5615 2.16667 23.3563 2.16667 23.0159V16.2492C2.16667 15.9087 2.16732 15.7035 2.1798 15.5508C2.18842 15.4453 2.20035 15.4055 2.20351 15.3969C2.23533 15.3349 2.28575 15.2845 2.34768 15.2527C2.35634 15.2495 2.39608 15.2376 2.5016 15.229C2.65434 15.2165 2.85956 15.2159 3.2 15.2159L4.13334 15.2159C4.47378 15.2159 4.679 15.2165 4.83174 15.229C4.93726 15.2376 4.977 15.2495 4.98566 15.2527C5.0476 15.2845 5.09801 15.3349 5.12983 15.3969C5.13298 15.4055 5.14492 15.4453 5.15354 15.5508C5.16602 15.7035 5.16667 15.9087 5.16667 16.2492V16.7263C5.16638 16.7389 5.16638 16.7515 5.16667 16.7642ZM5.12904 15.395L5.12983 15.3969ZM2.34577 15.2535L2.34768 15.2527ZM2.2043 23.8701L2.20351 23.8682ZM4.98757 24.0116L4.98566 24.0124Z" fill="#2362FB"/>
<path fill-rule="evenodd" clip-rule="evenodd" d="M7.5 5.63249C7.5 2.91709 9.70127 0.71582 12.4167 0.71582C13.8838 0.71582 15.2003 1.35882 16.1003 2.37609C16.7497 2.05989 17.4791 1.88249 18.25 1.88249C20.9654 1.88249 23.1667 4.08375 23.1667 6.79915C23.1667 9.51455 20.9654 11.7158 18.25 11.7158C16.7835 11.7158 15.467 11.0738 14.5661 10.0554C13.9164 10.3717 13.1866 10.5492 12.4167 10.5492C9.70127 10.5492 7.5 8.34789 7.5 5.63249ZM13.6841 8.62634C13.4578 8.06147 13.3333 7.44485 13.3333 6.79915C13.3333 5.4594 13.8692 4.24481 14.7383 3.35801C14.1477 2.7552 13.3255 2.38249 12.4167 2.38249C10.6217 2.38249 9.16667 3.83756 9.16667 5.63249C9.16667 7.42741 10.6217 8.88249 12.4167 8.88249C12.867 8.88249 13.295 8.79129 13.6841 8.62634ZM18.25 3.54915C16.4551 3.54915 15 5.00423 15 6.79915C15 8.59408 16.4551 10.0492 18.25 10.0492C20.0449 10.0492 21.5 8.59408 21.5 6.79915C21.5 5.00423 20.0449 3.54915 18.25 3.54915Z" fill="#2362FB"/>
</svg>
