<svg width="25" height="23" viewBox="0 0 25 23" fill="none" xmlns="http://www.w3.org/2000/svg">
<path fill-rule="evenodd" clip-rule="evenodd" d="M1.66667 3.16783V3.16667L12.8333 3.16783C12.8332 3.17242 12.8311 3.19088 12.8101 3.22824C12.783 3.27626 12.727 3.35029 12.6191 3.443C12.3983 3.63285 12.03 3.84158 11.5025 4.03342C10.4542 4.4146 8.95087 4.66667 7.25 4.66667C5.54913 4.66667 4.04577 4.4146 2.99752 4.03342C2.46997 3.84158 2.10168 3.63285 1.88086 3.443C1.77301 3.35029 1.71697 3.27626 1.68994 3.22824C1.66892 3.19088 1.66683 3.17243 1.66667 3.16783ZM1.66667 3.16667H12.8333C12.8333 3.16667 12.8346 3.14879 12.8101 3.1051C12.783 3.05707 12.727 2.98305 12.6191 2.89033C12.3983 2.70048 12.03 2.49175 11.5025 2.29991C10.4542 1.91873 8.95087 1.66667 7.25 1.66667C5.54913 1.66667 4.04577 1.91873 2.99752 2.29991C2.46997 2.49175 2.10168 2.70048 1.88086 2.89033C1.77301 2.98305 1.71697 3.05707 1.68994 3.1051C1.66559 3.14837 1.66667 3.16667 1.66667 3.16667ZM12.0721 5.59974C12.3389 5.50273 12.5946 5.39443 12.8333 5.27404V7.76864C12.43 7.92094 12.0596 8.09771 11.7391 8.30027C11.6426 8.36129 11.5505 8.42465 11.4635 8.49038C11.4538 8.49768 11.4441 8.50504 11.4345 8.51248C11.3863 8.54967 11.3395 8.58769 11.2943 8.62652C11.2163 8.69358 11.1403 8.76572 11.068 8.84286C10.0533 9.1441 8.72339 9.33333 7.25 9.33333C5.54913 9.33333 4.04577 9.08127 2.99752 8.70009C2.46997 8.50825 2.10168 8.29952 1.88086 8.10967C1.77301 8.01695 1.71697 7.94293 1.68994 7.8949C1.66892 7.85755 1.66683 7.83909 1.66667 7.8345V5.27404C1.90538 5.39443 2.16115 5.50273 2.42795 5.59974C3.70207 6.06306 5.40704 6.33333 7.25 6.33333C9.09296 6.33333 10.7979 6.06306 12.0721 5.59974ZM10.5 10.6966C9.52269 10.892 8.41524 11 7.25 11C5.40704 11 3.70207 10.7297 2.42795 10.2664C2.16115 10.1694 1.90538 10.0611 1.66667 9.94071V12.5V12.5012C1.66683 12.5058 1.66892 12.5242 1.68994 12.5616C1.71697 12.6096 1.77301 12.6836 1.88086 12.7763C2.10168 12.9662 2.46997 13.1749 2.99752 13.3668C4.04577 13.7479 5.54913 14 7.25 14C8.46236 14 9.57759 13.8719 10.5 13.6587V10.6966ZM10.5 15.3633C9.52269 15.5587 8.41524 15.6667 7.25 15.6667C5.40704 15.6667 3.70207 15.3964 2.42795 14.9331C2.16115 14.8361 1.90538 14.7278 1.66667 14.6074V17.1667C1.66667 17.1667 1.66535 17.1845 1.68994 17.2282C1.71697 17.2763 1.77301 17.3503 1.88086 17.443C2.10168 17.6328 2.46997 17.8416 2.99752 18.0334C4.04577 18.4146 5.54913 18.6667 7.25 18.6667C8.46236 18.6667 9.57759 18.5385 10.5 18.3253V15.3633ZM10.5784 20.014C9.58212 20.2195 8.44653 20.3333 7.25 20.3333C5.40704 20.3333 3.70207 20.0631 2.42795 19.5997C1.79431 19.3693 1.2229 19.0753 0.794318 18.7068C0.368444 18.3407 0 17.8231 0 17.1667V3.16667C0 2.51025 0.368444 1.99266 0.794318 1.62652C1.2229 1.25806 1.79431 0.964003 2.42795 0.73359C3.70207 0.27027 5.40704 0 7.25 0C9.09296 0 10.7979 0.27027 12.0721 0.73359C12.7057 0.964003 13.2771 1.25806 13.7057 1.62652C14.1316 1.99266 14.5 2.51025 14.5 3.16667V7.30337C15.4794 7.10759 16.5872 7 17.75 7C19.593 7 21.2979 7.27027 22.5721 7.73359C23.2057 7.964 23.7771 8.25806 24.2057 8.62652C24.6316 8.99266 25 9.51025 25 10.1667V19.5C25 20.1564 24.6316 20.674 24.2057 21.0401C23.7771 21.4086 23.2057 21.7027 22.5721 21.9331C21.2979 22.3964 19.593 22.6667 17.75 22.6667C15.907 22.6667 14.2021 22.3964 12.9279 21.9331C12.2943 21.7027 11.7229 21.4086 11.2943 21.0401C10.9866 20.7756 10.7089 20.432 10.5784 20.014ZM13.9092 9.16394C14.9227 8.85994 16.2606 8.66667 17.75 8.66667C19.4509 8.66667 20.9542 8.91873 22.0025 9.29991C22.53 9.49175 22.8983 9.70048 23.1191 9.89033C23.227 9.98305 23.283 10.0571 23.3101 10.1051C23.3346 10.1488 23.3333 10.1666 23.3333 10.1667H12.1667C12.1667 10.1657 12.1667 10.1642 12.167 10.1619M13.4989 9.29943C13.6261 9.25319 13.7619 9.20817 13.9064 9.16479ZM12.1667 10.1978C12.1793 10.2144 12.1913 10.2317 12.2028 10.2496C12.2694 10.353 12.4287 10.5127 12.745 10.6936C13.0529 10.8697 13.4638 11.0396 13.9692 11.1872C14.9796 11.4822 16.2952 11.6667 17.75 11.6667C19.4509 11.6667 20.9542 11.4146 22.0025 11.0334C22.53 10.8416 22.8983 10.6328 23.1191 10.443C23.227 10.3503 23.283 10.2763 23.3101 10.2282C23.3311 10.1909 23.3332 10.1724 23.3333 10.1678L12.1667 10.1667L12.1667 10.1978ZM12.1667 12.274L12.1667 14.2813C12.167 14.294 12.167 14.3067 12.1667 14.3194L12.1667 14.9238C12.2137 14.9552 12.2583 14.9919 12.2995 15.0339C12.5832 15.323 13.2202 15.6624 14.2246 15.9243C15.1985 16.1783 16.4166 16.3333 17.75 16.3333C19.4508 16.3333 20.9542 16.0813 22.0024 15.7001C22.53 15.5083 22.8983 15.2995 23.1191 15.1097C23.227 15.017 23.283 14.9429 23.31 14.8949C23.3346 14.8512 23.3333 14.8334 23.3333 14.8333L23.3333 14.8258V12.274C23.0946 12.3944 22.8389 12.5027 22.5721 12.5997C21.2979 13.0631 19.593 13.3333 17.75 13.3333C16.1663 13.3333 14.69 13.1338 13.5021 12.787C13.0141 12.6445 12.5625 12.4736 12.1667 12.274ZM12.1667 16.9407L12.1667 18.9667L12.1667 19.5C12.1667 19.5 12.1654 19.5179 12.1899 19.5616C12.217 19.6096 12.273 19.6836 12.3809 19.7763C12.6017 19.9662 12.97 20.1749 13.4975 20.3668C14.5458 20.7479 16.0491 21 17.75 21C19.4509 21 20.9542 20.7479 22.0025 20.3668C22.53 20.1749 22.8983 19.9662 23.1191 19.7763C23.227 19.6836 23.283 19.6096 23.3101 19.5616C23.3346 19.5179 23.3333 19.5 23.3333 19.5V16.9407C23.0946 17.0611 22.8388 17.1694 22.572 17.2664C21.2979 17.7297 19.5929 18 17.75 18C16.2961 18 14.9345 17.8319 13.804 17.537C13.2123 17.3827 12.652 17.1855 12.1667 16.9407Z" fill="#2362FB"/>
</svg>
