<svg width="26" height="26" viewBox="0 0 26 26" fill="none" xmlns="http://www.w3.org/2000/svg">
<path fill-rule="evenodd" clip-rule="evenodd" d="M13 2.38249C7.01691 2.38249 2.16667 7.23273 2.16667 13.2158C2.16667 19.1989 7.01691 24.0492 13 24.0492C18.9831 24.0492 23.8333 19.1989 23.8333 13.2158C23.8333 7.23273 18.9831 2.38249 13 2.38249ZM0.5 13.2158C0.5 6.31226 6.09644 0.71582 13 0.71582C19.9036 0.71582 25.5 6.31226 25.5 13.2158C25.5 20.1194 19.9036 25.7158 13 25.7158C6.09644 25.7158 0.5 20.1194 0.5 13.2158ZM11.1929 9.34967C11.5498 9.64031 11.6035 10.1652 11.3128 10.5221C10.7144 11.2569 9.85737 11.7158 8.91667 11.7158C7.96761 11.7158 7.13566 11.25 6.53026 10.5338C6.23314 10.1823 6.2772 9.65654 6.62868 9.35941C6.98015 9.06229 7.50595 9.10635 7.80307 9.45783C8.15434 9.87335 8.54739 10.0492 8.91667 10.0492C9.29429 10.0492 9.69731 9.86642 10.0205 9.46957C10.3112 9.11271 10.8361 9.05903 11.1929 9.34967ZM19.3596 9.34967C19.7164 9.64031 19.7701 10.1652 19.4795 10.5221C18.881 11.2569 18.024 11.7158 17.0833 11.7158C16.1343 11.7158 15.3023 11.25 14.6969 10.5338C14.3998 10.1823 14.4439 9.65654 14.7953 9.35941C15.1468 9.06229 15.6726 9.10635 15.9697 9.45783C16.321 9.87335 16.7141 10.0492 17.0833 10.0492C17.461 10.0492 17.864 9.86642 18.1872 9.46957C18.4778 9.11271 19.0027 9.05903 19.3596 9.34967ZM8.99881 15.0476C8.99884 15.0476 8.99878 15.0475 8.99881 15.0476L9.00707 15.0581C9.0159 15.0693 9.0311 15.0881 9.05254 15.1137C9.09546 15.1648 9.16302 15.2422 9.254 15.3371C9.43665 15.5277 9.70964 15.7848 10.0631 16.0419C10.7731 16.5583 11.7713 17.0492 13 17.0492C14.2287 17.0492 15.2269 16.5583 15.9369 16.0419C16.2904 15.7848 16.5634 15.5277 16.746 15.3371C16.837 15.2422 16.9045 15.1648 16.9475 15.1137C16.9689 15.0881 16.9841 15.0693 16.9929 15.0581L17.0013 15.0475L17.0004 15.0487C17.2766 14.6809 17.7986 14.6065 18.1667 14.8825C18.5349 15.1586 18.6095 15.681 18.3333 16.0492L17.6667 15.5492C18.3333 16.0492 18.3335 16.0489 18.3333 16.0492L18.3325 16.0503L18.3314 16.0517L18.3289 16.055L18.3218 16.0643L18.2997 16.0926C18.2814 16.1156 18.2562 16.1469 18.2241 16.1851C18.1599 16.2616 18.068 16.3665 17.9493 16.4903C17.7127 16.7372 17.3659 17.0635 16.9172 17.3898C16.0231 18.04 14.6879 18.7158 13 18.7158C11.3121 18.7158 9.97689 18.04 9.08277 17.3898C8.63411 17.0635 8.28731 16.7372 8.05069 16.4903C7.93203 16.3665 7.84008 16.2616 7.77591 16.1851C7.7438 16.1469 7.71856 16.1156 7.70033 16.0926L7.67822 16.0643L7.67112 16.055L7.66856 16.0517L7.66753 16.0503C7.66732 16.05 7.66667 16.0492 8.33333 15.5492L7.66667 16.0492C7.39052 15.681 7.46514 15.1586 7.83333 14.8825C8.20096 14.6068 8.72234 14.6808 8.99881 15.0476ZM17.0019 15.0466C17.0025 15.0459 17.0021 15.0464 17.0019 15.0466Z" fill="#2362FB"/>
</svg>
