<?xml version="1.0" encoding="utf-8"?>
<!-- Generator: Adobe Illustrator 26.5.0, SVG Export Plug-In . SVG Version: 6.00 Build 0)  -->
<svg version="1.1" id="Layer_1" xmlns="http://www.w3.org/2000/svg" xmlns:xlink="http://www.w3.org/1999/xlink" x="0px" y="0px"
	 viewBox="0 0 24 24" style="enable-background:new 0 0 24 24;" xml:space="preserve">
<path d="M21,21H3c-1.7,0-3-1.3-3-3V6c0-1.7,1.3-3,3-3h18c1.7,0,3,1.3,3,3v12C24,19.7,22.7,21,21,21z M2,11v7c0,0.6,0.4,1,1,1h18
	c0.6,0,1-0.4,1-1v-7H2z M2,9h20V6c0-0.6-0.4-1-1-1H3C2.4,5,2,5.4,2,6V9z"/>
</svg>
