<?xml version="1.0" encoding="utf-8"?>
<!-- Generator: Adobe Illustrator 26.2.1, SVG Export Plug-In . SVG Version: 6.00 Build 0)  -->
<svg version="1.1" id="Layer_1" xmlns="http://www.w3.org/2000/svg" xmlns:xlink="http://www.w3.org/1999/xlink" x="0px" y="0px"
	 viewBox="0 0 20 20" style="enable-background:new 0 0 20 20;" xml:space="preserve">
<style type="text/css">
	.st0{fill-rule:evenodd;clip-rule:evenodd;fill:#333239;}
</style>
<path class="st0" d="M0,4c0-0.6,0.4-1,1-1h18c0.6,0,1,0.4,1,1c0,0.6-0.4,1-1,1H1C0.4,5,0,4.6,0,4z M3,10c0-0.6,0.4-1,1-1h12
	c0.6,0,1,0.4,1,1s-0.4,1-1,1H4C3.4,11,3,10.6,3,10z M6,16c0-0.6,0.4-1,1-1h6c0.6,0,1,0.4,1,1c0,0.6-0.4,1-1,1H7C6.4,17,6,16.6,6,16z
	"/>
</svg>
