<?xml version="1.0" encoding="utf-8"?>
<!-- Generator: Adobe Illustrator 26.2.1, SVG Export Plug-In . SVG Version: 6.00 Build 0)  -->
<svg version="1.1" id="Layer_1" xmlns="http://www.w3.org/2000/svg" xmlns:xlink="http://www.w3.org/1999/xlink" x="0px" y="0px"
	 viewBox="0 0 20 20" style="enable-background:new 0 0 20 20;" xml:space="preserve">
<style type="text/css">
	.st0{fill-rule:evenodd;clip-rule:evenodd;fill:#231F20;}
</style>
<path class="st0" d="M3.7,4.6c-1.2,1.5-2,3.4-2,5.4c0,4.7,3.8,8.5,8.5,8.5c2.1,0,3.9-0.7,5.4-2L3.7,4.6z M4.8,3.5l11.9,11.9
	c1.2-1.5,2-3.4,2-5.4c0-4.7-3.8-8.5-8.5-8.5C8.2,1.5,6.3,2.3,4.8,3.5z M0.2,10c0-5.5,4.5-10,10-10c5.5,0,10,4.5,10,10
	c0,5.5-4.5,10-10,10C4.7,20,0.2,15.5,0.2,10z"/>
</svg>
