<?xml version="1.0" encoding="utf-8"?>
<!-- Generator: Adobe Illustrator 26.2.1, SVG Export Plug-In . SVG Version: 6.00 Build 0)  -->
<svg version="1.1" id="Layer_1" xmlns="http://www.w3.org/2000/svg" xmlns:xlink="http://www.w3.org/1999/xlink" x="0px" y="0px"
	 viewBox="0 0 20 20" style="enable-background:new 0 0 20 20;" xml:space="preserve">
<style type="text/css">
	.st0{fill-rule:evenodd;clip-rule:evenodd;fill:#231F20;}
</style>
<path class="st0" d="M14.2,5.8c-0.5,0-0.8-0.4-0.8-0.8s0.4-0.8,0.8-0.8h5C19.6,4.2,20,4.5,20,5v5c0,0.5-0.4,0.8-0.8,0.8
	s-0.8-0.4-0.8-0.8V7l-6.5,6.5c-0.3,0.3-0.9,0.3-1.2,0L7.1,9.9l-5.7,5.7c-0.3,0.3-0.9,0.3-1.2,0c-0.3-0.3-0.3-0.9,0-1.2l6.2-6.3
	c0.3-0.3,0.9-0.3,1.2,0l3.6,3.6l5.9-5.9H14.2z"/>
</svg>
