<?xml version="1.0" encoding="utf-8"?>
<!-- Generator: Adobe Illustrator 26.2.1, SVG Export Plug-In . SVG Version: 6.00 Build 0)  -->
<svg version="1.1" id="Layer_1" xmlns="http://www.w3.org/2000/svg" xmlns:xlink="http://www.w3.org/1999/xlink" x="0px" y="0px"
	 viewBox="0 0 20 20" style="enable-background:new 0 0 20 20;" xml:space="preserve">
<style type="text/css">
	.st0{fill:#1D1D1B;}
</style>
<path class="st0" d="M19.5,7c0,0.7-0.1,1.4-0.4,2c-0.3,0.7-0.7,1.2-1.2,1.7l-7.4,7.4c-0.1,0.3-0.3,0.3-0.5,0.3s-0.4-0.1-0.5-0.2
	l-7.4-7.4c-1-1-1.6-2.3-1.6-3.8c0-1.4,0.6-2.8,1.6-3.8s2.3-1.6,3.8-1.6s2.8,0.6,3.8,1.6L10,3.7l0.4-0.4c0.5-0.5,1.1-0.9,1.7-1.2
	c1.3-0.5,2.8-0.5,4.1,0c0.7,0.3,1.2,0.7,1.7,1.2s0.9,1.1,1.2,1.7C19.4,5.7,19.5,6.3,19.5,7z"/>
</svg>
