<?xml version="1.0" encoding="utf-8"?>
<!-- Generator: Adobe Illustrator 26.0.3, SVG Export Plug-In . SVG Version: 6.00 Build 0)  -->
<svg version="1.1" id="Layer_1" xmlns="http://www.w3.org/2000/svg" xmlns:xlink="http://www.w3.org/1999/xlink" x="0px" y="0px"
	 viewBox="0 0 22 22" style="enable-background:new 0 0 22 22;" xml:space="preserve">
<style type="text/css">
	.st0{fill:#1D1D1B;}
</style>
<path class="st0" d="M11,22c-3,0-5.7-1.2-7.7-3.2c0,0,0,0-0.1-0.1s0,0-0.1-0.1C1.2,16.7,0,14,0,11c0-3,1.2-5.7,3.2-7.7
	c0,0,0,0,0.1-0.1c0,0,0,0,0.1-0.1C5.3,1.2,8,0,11,0c3,0,5.7,1.2,7.7,3.2c0,0,0,0,0.1,0.1s0,0,0.1,0.1c2,2,3.2,4.7,3.2,7.7
	c0,3-1.2,5.7-3.2,7.7c0,0,0,0-0.1,0.1s0,0-0.1,0.1C16.7,20.8,14,22,11,22z M5.4,18c1.5,1.2,3.5,2,5.6,2c2.1,0,4.1-0.7,5.6-2
	l-2.9-2.9C13,15.7,12,16,11,16s-2-0.3-2.8-0.8L5.4,18z M4,5.4C2.7,6.9,2,8.9,2,11c0,2.1,0.7,4.1,2,5.6l2.9-2.9C6.3,13,6,12,6,11
	s0.3-2,0.8-2.8L4,5.4z M15.2,13.8l2.9,2.9c1.2-1.5,2-3.5,2-5.6c0-2.1-0.7-4.1-2-5.6l-2.9,2.9C15.7,9,16,10,16,11S15.7,13,15.2,13.8z
	 M11,8c-1.7,0-3,1.3-3,3s1.3,3,3,3s3-1.3,3-3S12.7,8,11,8z M11,6c1,0,2,0.3,2.8,0.8L16.6,4c-1.5-1.2-3.5-2-5.6-2
	C8.9,2,6.9,2.7,5.4,4l2.9,2.9C9,6.3,10,6,11,6z"/>
</svg>
