<?xml version="1.0" encoding="utf-8"?>
<!-- Generator: Adobe Illustrator 26.2.1, SVG Export Plug-In . SVG Version: 6.00 Build 0)  -->
<svg version="1.1" id="Layer_1" xmlns="http://www.w3.org/2000/svg" xmlns:xlink="http://www.w3.org/1999/xlink" x="0px" y="0px"
	 viewBox="0 0 20 20" style="enable-background:new 0 0 20 20;" xml:space="preserve">
<style type="text/css">
	.st0{fill-rule:evenodd;clip-rule:evenodd;fill:#231F20;}
</style>
<path class="st0" d="M9.4,0.2c0.3-0.3,0.8-0.3,1.1,0l8.2,6.4C19,6.7,19.1,7,19.1,7.3v10c0,0.7-0.3,1.4-0.8,1.9
	c-0.5,0.5-1.2,0.8-1.9,0.8H3.6c-0.7,0-1.4-0.3-1.9-0.8c-0.5-0.5-0.8-1.2-0.8-1.9v-10C0.9,7,1,6.7,1.3,6.6L9.4,0.2z M8.2,18.2h3.6
	v-7.3H8.2V18.2z M13.6,18.2V10c0-0.5-0.4-0.9-0.9-0.9H7.3c-0.5,0-0.9,0.4-0.9,0.9v8.2H3.6c-0.2,0-0.5-0.1-0.6-0.3
	c-0.2-0.2-0.3-0.4-0.3-0.6V7.7L10,2.1l7.3,5.7v9.6c0,0.2-0.1,0.5-0.3,0.6c-0.2,0.2-0.4,0.3-0.6,0.3H13.6z"/>
</svg>
