<?xml version="1.0" encoding="utf-8"?>
<!-- Generator: Adobe Illustrator 26.2.1, SVG Export Plug-In . SVG Version: 6.00 Build 0)  -->
<svg version="1.1" id="Layer_1" xmlns="http://www.w3.org/2000/svg" xmlns:xlink="http://www.w3.org/1999/xlink" x="0px" y="0px"
	 viewBox="0 0 20 20" style="enable-background:new 0 0 20 20;" xml:space="preserve">
<style type="text/css">
	.st0{fill-rule:evenodd;clip-rule:evenodd;fill:#231F20;}
</style>
<path class="st0" d="M18.7,6.6l-8.2-6.4c-0.3-0.3-0.8-0.3-1.1,0L1.3,6.6C1,6.7,0.9,7,0.9,7.3v10c0,0.7,0.3,1.4,0.8,1.9
	S2.9,20,3.6,20h12.8c0.7,0,1.4-0.3,1.9-0.8s0.8-1.2,0.8-1.9v-10C19.1,7,19,6.7,18.7,6.6z M11.8,18.2H8.2v-7.3h3.6V18.2z M17.3,17.4
	c0,0.2-0.1,0.5-0.3,0.6c-0.2,0.2-0.4,0.3-0.6,0.3h-2.8v-0.1V10c0-0.5-0.4-0.9-0.9-0.9H7.3c-0.5,0-0.9,0.4-0.9,0.9v8.2H3.6
	c-0.2,0-0.5-0.1-0.6-0.3c-0.2-0.2-0.3-0.4-0.3-0.6V7.7L10,2.1l7.3,5.7V17.4z"/>
</svg>
