<?xml version="1.0" encoding="utf-8"?>
<!-- Generator: Adobe Illustrator 26.2.1, SVG Export Plug-In . SVG Version: 6.00 Build 0)  -->
<svg version="1.1" id="Layer_1" xmlns="http://www.w3.org/2000/svg" xmlns:xlink="http://www.w3.org/1999/xlink" x="0px" y="0px"
	 viewBox="0 0 20 20" style="enable-background:new 0 0 20 20;" xml:space="preserve">
<style type="text/css">
	.st0{fill-rule:evenodd;clip-rule:evenodd;fill:#231F20;}
</style>
<path class="st0" d="M3,2C2.5,2,2,2.5,2,3v14c0,0.4,0.3,0.8,0.6,0.9L13.3,7.3c0.4-0.4,1-0.4,1.4,0l3.3,3.3V3c0-0.6-0.4-1-1-1H3z
	 M20,3c0-1.7-1.3-3-3-3H3C1.3,0,0,1.3,0,3v14c0,1.7,1.3,3,3,3h14c1.7,0,3-1.3,3-3V3z M18,13.4l-4-4L5.4,18H17c0.6,0,1-0.4,1-1V13.4z
	 M6.5,6C6.2,6,6,6.2,6,6.5S6.2,7,6.5,7S7,6.8,7,6.5S6.8,6,6.5,6z M4,6.5C4,5.1,5.1,4,6.5,4S9,5.1,9,6.5S7.9,9,6.5,9S4,7.9,4,6.5z"/>
</svg>
