<?xml version="1.0" encoding="utf-8"?>
<!-- Generator: Adobe Illustrator 26.2.1, SVG Export Plug-In . SVG Version: 6.00 Build 0)  -->
<svg version="1.1" id="Layer_1" xmlns="http://www.w3.org/2000/svg" xmlns:xlink="http://www.w3.org/1999/xlink" x="0px" y="0px"
	 viewBox="0 0 20 20" style="enable-background:new 0 0 20 20;" xml:space="preserve">
<style type="text/css">
	.st0{fill-rule:evenodd;clip-rule:evenodd;fill:#231F20;}
</style>
<path class="st0" d="M17,0H3C1.3,0,0,1.3,0,3v14c0,1.7,1.3,3,3,3h14c1.7,0,3-1.3,3-3V3C20,1.3,18.7,0,17,0z M18,17c0,0.6-0.4,1-1,1
	H5.4L14,9.4l4,4V17z M18,10.6l-3.3-3.3c-0.4-0.4-1-0.4-1.4,0L2.6,17.9C2.3,17.8,2,17.4,2,17V3c0-0.5,0.5-1,1-1h14c0.6,0,1,0.4,1,1
	V10.6z M9,6.5C9,7.9,7.9,9,6.5,9S4,7.9,4,6.5S5.1,4,6.5,4S9,5.1,9,6.5z"/>
</svg>
