<?xml version="1.0" encoding="utf-8"?>
<!-- Generator: Adobe Illustrator 26.5.0, SVG Export Plug-In . SVG Version: 6.00 Build 0)  -->
<svg version="1.1" id="Layer_1" xmlns="http://www.w3.org/2000/svg" xmlns:xlink="http://www.w3.org/1999/xlink" x="0px" y="0px"
	 viewBox="0 0 24 24" style="enable-background:new 0 0 24 24;" xml:space="preserve">
<path d="M24,11.2c0,6.6-5.4,12-12,12s-12-5.4-12-12c0-1.9,0.5-3.8,1.3-5.5C2.2,4,3.4,2.6,4.9,1.5c1.7-1.2,4-0.8,5.2,0.8
	c1.2,1.7,0.8,4-0.8,5.2c-0.1,0-0.1,0.1-0.2,0.2l0,0c-1,0.8-1.6,1.9-1.7,3.1c0,0,0,0,0,0c0,0,0,0.1,0,0.1c0,0,0,0.1,0,0.1
	c0,0,0,0,0,0c0,0,0,0.1,0,0.1c0,2.5,2,4.5,4.5,4.5c0.7,0,1.4-0.2,2-0.4c1.5-0.7,2.6-2.3,2.6-4.1c0-1.4-0.6-2.6-1.7-3.5l0,0
	c-0.1-0.1-0.1-0.1-0.2-0.2c-0.1-0.1-0.2-0.2-0.3-0.3c-0.2-0.3-0.3-0.6-0.4-1C14,5.6,14.2,5,14.6,4.5c0.4-0.5,0.9-0.8,1.5-0.8
	c0.6-0.1,1.2,0.1,1.6,0.5c2.1,1.7,3.3,4.3,3.3,7c0,5-4.1,9-9,9s-9-4.1-9-9c0-2.7,1.2-5.3,3.3-7C6.6,3.9,7,4,7.3,4.3
	c0.3,0.3,0.2,0.8-0.1,1c-1.8,1.5-2.8,3.6-2.8,5.9c0,4.2,3.4,7.6,7.6,7.6s7.6-3.4,7.6-7.6c0-2.3-1-4.4-2.8-5.9
	c-0.2-0.1-0.4-0.2-0.6-0.2c-0.2,0-0.4,0.1-0.6,0.3c-0.1,0.2-0.2,0.4-0.2,0.6c0,0.2,0.1,0.4,0.3,0.6l0,0c0,0,0,0,0,0
	c0,0,0.1,0,0.1,0.1c0,0,0,0,0,0c1.2,1.1,1.9,2.5,2,4.1c0,0,0,0,0,0c0,0,0,0.1,0,0.1c0,0,0,0,0,0.1c0,0,0,0,0,0.1c0,0,0,0.1,0,0.1
	c0,2.3-1.3,4.3-3.3,5.3c-0.8,0.4-1.7,0.7-2.7,0.7c-3.3,0-6-2.7-6-6c0-1.7,0.7-3.4,2-4.5c0,0,0,0,0,0c0,0,0.1-0.1,0.1-0.1
	c0,0,0,0,0,0c0,0,0,0,0,0l0,0c0.1-0.1,0.2-0.1,0.3-0.2c1-0.7,1.3-2.2,0.5-3.2c-0.7-1-2.2-1.3-3.2-0.5c-1.3,1-2.4,2.2-3.2,3.7
	c-0.8,1.5-1.2,3.2-1.2,4.9C1.4,17,6.2,21.8,12,21.8c5.8,0,10.6-4.7,10.6-10.6c0-1.7-0.4-3.4-1.2-4.9c-0.7-1.4-1.8-2.7-3.2-3.7
	c-1-0.7-2.5-0.5-3.2,0.5c-0.2,0.3-0.7,0.4-1,0.2s-0.4-0.7-0.2-1c1.2-1.7,3.6-2,5.2-0.8c1.5,1.1,2.7,2.5,3.6,4.2
	C23.5,7.4,24,9.3,24,11.2z"/>
</svg>
