<?xml version="1.0" encoding="utf-8"?>
<!-- Generator: Adobe Illustrator 26.2.1, SVG Export Plug-In . SVG Version: 6.00 Build 0)  -->
<svg version="1.1" id="Layer_1" xmlns="http://www.w3.org/2000/svg" xmlns:xlink="http://www.w3.org/1999/xlink" x="0px" y="0px"
	 viewBox="0 0 20 20" style="enable-background:new 0 0 20 20;" xml:space="preserve">
<style type="text/css">
	.st0{fill:#101828;}
</style>
<path class="st0" d="M10,0c5.5,0,10,4.5,10,10s-4.5,10-10,10S0,15.5,0,10S4.5,0,10,0z M10,18.2c4.5,0,8.2-3.7,8.2-8.2
	S14.5,1.8,10,1.8S1.8,5.5,1.8,10S5.5,18.2,10,18.2z M10,5.5c0.5,0,0.9,0.4,0.9,0.9S10.5,7.3,10,7.3l0,0c-0.5,0-0.9-0.4-0.9-0.9
	S9.5,5.5,10,5.5z M10,9.1c0.5,0,0.9,0.4,0.9,0.9v3.6c0,0.5-0.4,0.9-0.9,0.9s-0.9-0.4-0.9-0.9V10C9.1,9.5,9.5,9.1,10,9.1z"/>
</svg>
