<?xml version="1.0" encoding="utf-8"?>
<!-- Generator: Adobe Illustrator 26.0.3, SVG Export Plug-In . SVG Version: 6.00 Build 0)  -->
<svg version="1.1" id="Layer_1" xmlns="http://www.w3.org/2000/svg" xmlns:xlink="http://www.w3.org/1999/xlink" x="0px" y="0px"
	 viewBox="0 0 22 22" style="enable-background:new 0 0 22 22;" xml:space="preserve">
<style type="text/css">
	.st0{fill:#1D1D1B;}
</style>
<path class="st0" d="M6.5,21.5C6.5,21.5,6.5,21.5,6.5,21.5c-0.9,0-1.7-0.2-2.5-0.5c-0.8-0.3-1.5-0.8-2.1-1.4
	c-1.2-1.2-1.8-2.9-1.8-4.6c0-1.7,0.7-3.3,1.9-4.5s2.8-1.9,4.5-1.9c1.4,0,2.7,0.4,3.8,1.2l9-9c0.4-0.4,1-0.4,1.4,0
	C20.9,1,21,1.2,21,1.5S20.9,2,20.7,2.2l-1.3,1.3l2.3,2.3c0.4,0.4,0.4,1,0,1.4l-3.5,3.5c-0.4,0.4-1,0.4-1.4,0l-2.3-2.3l-2.7,2.7
	c0.3,0.4,0.6,0.9,0.8,1.3c0.3,0.8,0.5,1.6,0.5,2.5c0,0.9-0.2,1.7-0.5,2.5c-0.3,0.8-0.8,1.5-1.4,2.1C10.5,20.2,9.8,20.7,9,21
	C8.2,21.3,7.4,21.5,6.5,21.5z M6.6,10.6C6.6,10.6,6.5,10.6,6.6,10.6c-1.2,0-2.3,0.5-3.2,1.3c-0.8,0.8-1.3,2-1.3,3.1
	c0,1.2,0.4,2.3,1.3,3.2c0.4,0.4,0.9,0.7,1.5,1c0.5,0.2,1.1,0.3,1.7,0.4c0.6,0,1.2-0.1,1.7-0.3s1-0.6,1.5-1c0.4-0.4,0.8-0.9,1-1.5
	c0.2-0.6,0.3-1.1,0.3-1.7c0-0.6-0.1-1.2-0.4-1.7c-0.2-0.5-0.6-1-1-1.5C8.8,11,7.7,10.6,6.6,10.6z M15.9,7l1.6,1.6l2.1-2.1L18,4.9
	L15.9,7z"/>
</svg>
