<svg width="24" height="10" viewBox="0 0 24 10" fill="none" xmlns="http://www.w3.org/2000/svg">
<path fill-rule="evenodd" clip-rule="evenodd" d="M11.95 2C10.2931 2 8.95 3.34315 8.95 5C8.95 6.65685 10.2931 8 11.95 8C13.6069 8 14.95 6.65685 14.95 5C14.95 3.34315 13.6069 2 11.95 2ZM7.04904 4.00484C7.51043 1.72019 9.52933 0 11.95 0C14.371 0 16.3902 1.7207 16.8512 4.00585C16.8869 4.00199 16.9232 4 16.96 4H22.91C23.4623 4 23.91 4.44772 23.91 5C23.91 5.55228 23.4623 6 22.91 6H16.96C16.9232 6 16.8869 5.99801 16.8512 5.99415C16.3902 8.2793 14.371 10 11.95 10C9.52933 10 7.51043 8.27981 7.04904 5.99516C7.01646 5.99836 6.98342 6 6.95 6H1C0.447715 6 0 5.55228 0 5C0 4.44772 0.447715 4 1 4H6.95C6.98342 4 7.01646 4.00164 7.04904 4.00484Z" fill="#2362FB"/>
</svg>
