<?xml version="1.0" encoding="utf-8"?>
<!-- Generator: Adobe Illustrator 26.2.1, SVG Export Plug-In . SVG Version: 6.00 Build 0)  -->
<svg version="1.1" id="Layer_1" xmlns="http://www.w3.org/2000/svg" xmlns:xlink="http://www.w3.org/1999/xlink" x="0px" y="0px"
	 viewBox="0 0 20 20" style="enable-background:new 0 0 20 20;" xml:space="preserve">
<style type="text/css">
	.st0{fill-rule:evenodd;clip-rule:evenodd;fill:#333239;}
</style>
<path class="st0" d="M10,2.1c-0.9,0-1.8,0.4-2.4,1c-0.6,0.6-1,1.5-1,2.4V8h6.8V5.5c0-0.9-0.4-1.8-1-2.4C11.8,2.5,10.9,2.1,10,2.1z
	 M15.5,8V5.5c0-1.5-0.6-2.9-1.6-3.9c-1-1-2.4-1.6-3.9-1.6S7.1,0.6,6.1,1.6c-1,1-1.6,2.4-1.6,3.9V8H3.7c-1.6,0-2.9,1.3-2.9,2.9v6.2
	c0,1.6,1.3,2.9,2.9,2.9h12.5c1.6,0,2.9-1.3,2.9-2.9v-6.2c0-1.6-1.3-2.9-2.9-2.9H15.5z M3.7,10.2c-0.4,0-0.7,0.3-0.7,0.7v6.2
	c0,0.4,0.3,0.7,0.7,0.7h12.5c0.4,0,0.7-0.3,0.7-0.7v-6.2c0-0.4-0.3-0.7-0.7-0.7H3.7z"/>
</svg>
