<?xml version="1.0" encoding="utf-8"?>
<!-- Generator: Adobe Illustrator 26.2.1, SVG Export Plug-In . SVG Version: 6.00 Build 0)  -->
<svg version="1.1" id="Layer_1" xmlns="http://www.w3.org/2000/svg" xmlns:xlink="http://www.w3.org/1999/xlink" x="0px" y="0px"
	 viewBox="0 0 20 20" style="enable-background:new 0 0 20 20;" xml:space="preserve">
<style type="text/css">
	.st0{fill-rule:evenodd;clip-rule:evenodd;fill:#333239;}
</style>
<path class="st0" d="M11.9,1.1C11.9,0.5,12.3,0,13,0h5.9C19.5,0,20,0.5,20,1.1V7c0,0.6-0.5,1.1-1.1,1.1c-0.6,0-1.1-0.5-1.1-1.1V3.8
	l-9,9c-0.4,0.4-1.1,0.4-1.6,0c-0.4-0.4-0.4-1.1,0-1.6l9-9H13C12.3,2.2,11.9,1.7,11.9,1.1z M3.1,5.2c-0.2,0-0.4,0.1-0.6,0.3
	C2.3,5.6,2.2,5.8,2.2,6v10.9c0,0.2,0.1,0.4,0.3,0.6c0.2,0.2,0.4,0.3,0.6,0.3H14c0.2,0,0.4-0.1,0.6-0.3c0.2-0.2,0.3-0.4,0.3-0.6V11
	c0-0.6,0.5-1.1,1.1-1.1c0.6,0,1.1,0.5,1.1,1.1v5.9c0,0.8-0.3,1.6-0.9,2.2C15.6,19.7,14.8,20,14,20H3.1c-0.8,0-1.6-0.3-2.2-0.9
	C0.3,18.5,0,17.7,0,16.9V6c0-0.8,0.3-1.6,0.9-2.2C1.5,3.3,2.3,3,3.1,3H9c0.6,0,1.1,0.5,1.1,1.1S9.6,5.2,9,5.2H3.1z"/>
</svg>
