<svg width="26" height="26" viewBox="0 0 26 26" fill="none" xmlns="http://www.w3.org/2000/svg">
<path fill-rule="evenodd" clip-rule="evenodd" d="M12.6667 1.83329C6.6836 1.83329 1.83335 6.68354 1.83335 12.6666C1.83335 18.6497 6.6836 23.5 12.6667 23.5C18.6498 23.5 23.5 18.6497 23.5 12.6666C23.5 6.68354 18.6498 1.83329 12.6667 1.83329ZM0.166687 12.6666C0.166687 5.76307 5.76313 0.166626 12.6667 0.166626C19.5702 0.166626 25.1667 5.76307 25.1667 12.6666C25.1667 19.5702 19.5702 25.1666 12.6667 25.1666C5.76313 25.1666 0.166687 19.5702 0.166687 12.6666ZM17.9226 7.4107C18.248 7.73614 18.248 8.26378 17.9226 8.58921L8.58928 17.9225C8.26384 18.248 7.7362 18.248 7.41076 17.9225C7.08533 17.5971 7.08533 17.0695 7.41076 16.744L16.7441 7.4107C17.0695 7.08527 17.5972 7.08527 17.9226 7.4107ZM7.75002 9.16663C7.75002 8.38422 8.38428 7.74996 9.16669 7.74996C9.94909 7.74996 10.5834 8.38422 10.5834 9.16663C10.5834 9.94903 9.94909 10.5833 9.16669 10.5833C8.38428 10.5833 7.75002 9.94903 7.75002 9.16663ZM14.75 16.1666C14.75 15.3842 15.3843 14.75 16.1667 14.75C16.9491 14.75 17.5834 15.3842 17.5834 16.1666C17.5834 16.949 16.9491 17.5833 16.1667 17.5833C15.3843 17.5833 14.75 16.949 14.75 16.1666Z" fill="#2362FB"/>
</svg>
