<?xml version="1.0" encoding="utf-8"?>
<!-- Generator: Adobe Illustrator 26.4.1, SVG Export Plug-In . SVG Version: 6.00 Build 0)  -->
<svg version="1.1" id="Layer_1" xmlns="http://www.w3.org/2000/svg" xmlns:xlink="http://www.w3.org/1999/xlink" x="0px" y="0px"
	 viewBox="0 0 32 32" style="enable-background:new 0 0 32 32;" xml:space="preserve">
<path d="M27.1,32c-0.1,0-0.3,0-0.4,0c-4.6-0.5-9.1-2.1-13-4.6c-3.6-2.3-6.7-5.4-9-9C2.1,14.5,0.5,10,0,5.4C0,4.6,0,4,0.3,3.3
	c0.2-0.6,0.6-1.2,1-1.7c0.5-0.5,1-0.9,1.6-1.2C3.5,0.1,4.2,0,4.9,0h4.2c1.2,0,2.3,0.4,3.2,1.2s1.5,1.8,1.7,3
	c0.2,1.2,0.4,2.4,0.9,3.5c0.3,0.9,0.4,1.8,0.2,2.7c-0.2,0.9-0.6,1.8-1.3,2.4l-0.6,0.6c1.4,2.1,3.3,4,5.4,5.4l0.6-0.6
	c0.7-0.7,1.5-1.1,2.4-1.3c0.9-0.2,1.9-0.1,2.7,0.2c1.1,0.4,2.3,0.7,3.5,0.9c1.2,0.2,2.3,0.8,3.1,1.7c0.8,0.9,1.2,2.1,1.2,3.3v4.2
	c0,0.7-0.1,1.3-0.4,2c-0.3,0.6-0.7,1.2-1.2,1.6c-0.5,0.5-1.1,0.8-1.7,1C28.2,31.9,27.6,32,27.1,32z M9.1,4.2
	C9.1,4.2,9.1,4.2,9.1,4.2H4.9c-0.1,0-0.2,0-0.3,0.1c-0.1,0-0.2,0.1-0.2,0.2C4.3,4.5,4.3,4.6,4.2,4.7c0,0.1,0,0.2,0,0.3
	c0.4,3.9,1.8,7.8,4,11.2c2,3.1,4.7,5.8,7.8,7.7c3.4,2.2,7.2,3.5,11.2,4c0.1,0,0.2,0,0.2,0c0.1,0,0.2-0.1,0.2-0.1
	c0.1-0.1,0.1-0.1,0.2-0.2c0-0.1,0.1-0.2,0.1-0.3v-4.2c0,0,0,0,0,0c0-0.2-0.1-0.3-0.2-0.5c-0.1-0.1-0.3-0.2-0.4-0.2
	c-1.5-0.2-3-0.6-4.4-1.1c-0.1-0.1-0.3-0.1-0.4,0c-0.1,0-0.3,0.1-0.4,0.2L20.3,23c-0.7,0.7-1.7,0.8-2.5,0.3c-3.8-2.2-7-5.3-9.2-9.2
	c-0.5-0.8-0.3-1.8,0.3-2.5l1.8-1.8c0.1-0.1,0.2-0.2,0.2-0.3c0-0.1,0-0.3,0-0.4C10.4,7.7,10,6.3,9.8,4.8c0-0.1-0.1-0.3-0.2-0.4
	C9.4,4.2,9.3,4.2,9.1,4.2z"/>
</svg>
