<svg width="26" height="23" viewBox="0 0 26 23" fill="none" xmlns="http://www.w3.org/2000/svg">
<path fill-rule="evenodd" clip-rule="evenodd" d="M7.16669 5.08329C7.16669 2.36789 9.36795 0.166626 12.0834 0.166626C14.6806 0.166626 16.8076 2.18057 16.9877 4.73203L19.4411 4.03105C19.6199 3.97994 19.8029 3.92761 19.9611 3.89729C20.1324 3.86445 20.3733 3.8357 20.6367 3.91041C20.9766 4.00684 21.2682 4.22679 21.4543 4.52712C21.5984 4.75983 21.637 4.99936 21.6525 5.1731C21.6668 5.33352 21.6667 5.52388 21.6667 5.70981L21.6667 7.03183C21.6667 7.05316 21.6667 7.07163 21.6667 7.08812C21.6839 7.10561 21.7036 7.12547 21.7274 7.14938C22.3664 7.79345 22.8947 8.54839 23.2806 9.38338C23.3015 9.42854 23.319 9.46653 23.3347 9.49989C23.3589 9.49995 23.3859 9.49996 23.4166 9.49996L23.4385 9.49996C23.5748 9.49993 23.7204 9.4999 23.8462 9.5097C23.9879 9.52073 24.1728 9.54781 24.3648 9.64028C24.6538 9.77952 24.8871 10.0128 25.0264 10.3019C25.1188 10.4939 25.1459 10.6788 25.1569 10.8204C25.1667 10.9463 25.1667 11.0919 25.1667 11.2281V15.2562C25.1667 15.3994 25.1668 15.5523 25.156 15.6843C25.1438 15.8331 25.1139 16.027 25.0123 16.2264C24.8765 16.493 24.6597 16.7097 24.3932 16.8456C24.1937 16.9472 23.9998 16.9771 23.851 16.9892C23.719 17 23.5661 17 23.423 17L22.7686 17C22.7404 17 22.7161 17 22.6943 17C22.676 17.0265 22.6552 17.0568 22.6302 17.0932C21.8381 18.2477 20.7446 19.1795 19.4619 19.775C19.4117 19.7983 19.3699 19.8177 19.3335 19.8349C19.3334 19.8623 19.3334 19.8929 19.3334 19.9283L19.3334 21.0896C19.3334 21.2327 19.3334 21.3856 19.3226 21.5176C19.3105 21.6664 19.2806 21.8603 19.1789 22.0598C19.0431 22.3263 18.8264 22.5431 18.5598 22.6789C18.3604 22.7805 18.1665 22.8104 18.0177 22.8226C17.8857 22.8334 17.7327 22.8333 17.5896 22.8333H15.327C15.1839 22.8333 15.0309 22.8334 14.8989 22.8226C14.7501 22.8104 14.5562 22.7805 14.3568 22.6789C14.0902 22.5431 13.8735 22.3263 13.7377 22.0598C13.6361 21.8603 13.6061 21.6664 13.594 21.5176C13.5832 21.3856 13.5832 21.2327 13.5833 21.0896L13.5833 20.6C13.5833 20.5632 13.5833 20.5302 13.5832 20.5C13.553 20.5 13.52 20.5 13.4833 20.5H11.8499C11.8132 20.5 11.7802 20.5 11.75 20.5C11.7499 20.5302 11.7499 20.5632 11.7499 20.6L11.7499 21.0896C11.75 21.2327 11.75 21.3856 11.7392 21.5176C11.7271 21.6664 11.6972 21.8603 11.5955 22.0598C11.4597 22.3263 11.243 22.5431 10.9764 22.6789C10.777 22.7805 10.5831 22.8104 10.4343 22.8226C10.3023 22.8334 10.1493 22.8333 10.0062 22.8333H7.74367C7.60054 22.8333 7.44761 22.8334 7.31561 22.8226C7.16681 22.8104 6.9729 22.7805 6.77345 22.6789C6.50689 22.5431 6.29016 22.3263 6.15435 22.0598C6.05272 21.8603 6.02281 21.6664 6.01065 21.5176C5.99987 21.3856 5.9999 21.2327 5.99994 21.0896L5.99994 18.3014C5.99994 18.2801 5.99994 18.2616 5.9999 18.2451C5.98269 18.2276 5.96298 18.2078 5.93926 18.1839C4.71898 16.954 3.90304 15.3196 3.71045 13.5H3.33335C1.58445 13.5 0.166687 12.0822 0.166687 10.3333C0.166687 9.16013 0.805071 8.13705 1.74942 7.59078C2.1478 7.36033 2.65757 7.49646 2.88803 7.89485C3.11848 8.29323 2.98234 8.803 2.58396 9.03346C2.13343 9.29407 1.83335 9.77913 1.83335 10.3333C1.83335 11.1617 2.50493 11.8333 3.33335 11.8333H3.71041C3.96605 9.41577 5.32139 7.32629 7.2668 6.07446C7.20112 5.75385 7.16669 5.42228 7.16669 5.08329ZM11.4999 4.83329C10.5662 4.83329 9.67061 4.99667 8.8402 5.29639C8.83566 5.226 8.83335 5.15495 8.83335 5.08329C8.83335 3.28837 10.2884 1.83329 12.0834 1.83329C13.7942 1.83329 15.1962 3.15518 15.3239 4.83329H11.4999ZM11.3017 6.50309C7.98768 6.60776 5.33327 9.32721 5.33327 12.6666C5.33327 14.3611 6.01557 15.8945 7.12235 17.01C7.1307 17.0184 7.1397 17.0274 7.14924 17.0369C7.23666 17.1242 7.36967 17.257 7.45986 17.4051C7.53922 17.5354 7.59241 17.6646 7.62785 17.8129C7.66799 17.981 7.66721 18.1568 7.66671 18.2688C7.66665 18.2804 7.66661 18.2913 7.66661 18.3014V21.0666C7.66661 21.1034 7.66661 21.1364 7.66669 21.1665C7.69686 21.1666 7.72988 21.1666 7.76661 21.1666H9.98327C10.02 21.1666 10.053 21.1666 10.0832 21.1665C10.0833 21.1364 10.0833 21.1034 10.0833 21.0666L10.0833 20.577C10.0832 20.4339 10.0832 20.2809 10.094 20.149C10.1061 20.0002 10.1361 19.8063 10.2377 19.6068C10.3735 19.3402 10.5902 19.1235 10.8568 18.9877C11.0562 18.8861 11.2501 18.8562 11.3989 18.844C11.5309 18.8332 11.6839 18.8333 11.827 18.8333H13.5062C13.6493 18.8333 13.8023 18.8332 13.9343 18.844C14.0831 18.8562 14.277 18.8861 14.4764 18.9877C14.743 19.1235 14.9597 19.3402 15.0955 19.6068C15.1972 19.8063 15.2271 20.0002 15.2392 20.149C15.25 20.2809 15.25 20.4339 15.2499 20.577L15.2499 21.0666C15.2499 21.1034 15.2499 21.1364 15.25 21.1665C15.2802 21.1666 15.3132 21.1666 15.3499 21.1666H17.5667C17.6034 21.1666 17.6364 21.1666 17.6666 21.1665C17.6667 21.1364 17.6667 21.1034 17.6667 21.0666V19.9283C17.6667 19.9125 17.6666 19.8954 17.6665 19.8772C17.6653 19.7063 17.6636 19.44 17.7482 19.2016C17.8227 18.9914 17.9323 18.8197 18.0916 18.6635C18.2129 18.5446 18.3445 18.4684 18.4382 18.4187C18.5278 18.3711 18.6366 18.3206 18.7447 18.2704L18.7601 18.2633C19.7692 17.7948 20.6313 17.0607 21.2558 16.1504C21.2645 16.1378 21.2737 16.1242 21.2834 16.1098C21.3717 15.9796 21.5052 15.7827 21.6732 15.6472C21.8209 15.5281 21.9745 15.4472 22.1562 15.3928C22.3623 15.3311 22.5846 15.3323 22.7266 15.3331C22.7415 15.3332 22.7555 15.3333 22.7686 15.3333H23.4C23.4368 15.3333 23.4698 15.3333 23.4999 15.3332C23.5 15.303 23.5 15.27 23.5 15.2333V11.25C23.5 11.2198 23.5 11.1922 23.5 11.1667C23.4745 11.1666 23.4469 11.1666 23.4166 11.1666C23.4015 11.1666 23.3851 11.1667 23.3677 11.1668C23.2045 11.1679 22.9506 11.1694 22.7221 11.0924C22.4954 11.016 22.3104 10.8977 22.1459 10.724C22.0344 10.6062 21.9625 10.4802 21.9155 10.3906C21.8703 10.3047 21.8222 10.2006 21.7744 10.097L21.7677 10.0826C21.4642 9.42605 21.0483 8.83127 20.5443 8.32329C20.5359 8.31488 20.5269 8.30589 20.5174 8.29635C20.43 8.20905 20.297 8.07621 20.2068 7.92812C20.1274 7.79781 20.0742 7.66867 20.0388 7.52031C19.9986 7.35223 19.9994 7.17644 19.9999 7.06447C20 7.05288 20 7.04197 20 7.03183V5.7373C20 5.68883 20 5.64503 19.9999 5.60489C19.9613 5.61581 19.9192 5.62783 19.8725 5.64115L17.1046 6.43199C17.1015 6.43287 17.0982 6.43381 17.0947 6.43482C17.059 6.44507 17.0024 6.46134 16.9425 6.47316C16.8909 6.48334 16.8388 6.49064 16.7864 6.49502C16.7255 6.50012 16.6663 6.50003 16.629 6.49997C16.6254 6.49996 16.6219 6.49996 16.6187 6.49996H11.4999C11.4336 6.49996 11.3675 6.50101 11.3017 6.50309ZM20.3055 5.52935C20.3054 5.52937 20.3045 5.52948 20.3029 5.52959ZM19.9891 5.29288C19.9887 5.29124 19.9886 5.29036 19.9886 5.29034ZM22.767 16.8997C22.767 16.8998 22.7666 16.9002 22.7659 16.901Z" fill="#2362FB"/>
</svg>
