<?xml version="1.0" encoding="utf-8"?>
<!-- Generator: Adobe Illustrator 26.2.1, SVG Export Plug-In . SVG Version: 6.00 Build 0)  -->
<svg version="1.1" id="Layer_1" xmlns="http://www.w3.org/2000/svg" xmlns:xlink="http://www.w3.org/1999/xlink" x="0px" y="0px"
	 viewBox="0 0 20 20" style="enable-background:new 0 0 20 20;" xml:space="preserve">
<style type="text/css">
	.st0{fill-rule:evenodd;clip-rule:evenodd;fill:#333239;}
</style>
<path class="st0" d="M10,1.8c-4.5,0-8.2,3.7-8.2,8.2c0,4.5,3.7,8.2,8.2,8.2c4.5,0,8.2-3.7,8.2-8.2C18.2,5.5,14.5,1.8,10,1.8z M0,10
	C0,4.5,4.5,0,10,0c5.5,0,10,4.5,10,10c0,5.5-4.5,10-10,10C4.5,20,0,15.5,0,10z M10.2,6.4C9.8,6.3,9.4,6.4,9,6.6
	c-0.4,0.2-0.7,0.6-0.8,1C8,8,7.5,8.3,7.1,8.1C6.6,8,6.3,7.4,6.5,7C6.8,6.2,7.3,5.5,8.1,5c0.7-0.4,1.6-0.6,2.5-0.4
	c0.8,0.1,1.6,0.6,2.2,1.2c0.6,0.7,0.9,1.5,0.9,2.3c0,1.4-1,2.3-1.8,2.8c-0.4,0.3-0.8,0.5-1.1,0.6c-0.1,0.1-0.3,0.1-0.4,0.1
	c0,0-0.1,0-0.1,0l0,0l0,0l0,0l0,0c0,0,0,0-0.3-0.9l0.3,0.9c-0.5,0.2-1-0.1-1.2-0.6c-0.2-0.5,0.1-1,0.6-1.1l0,0c0,0,0,0,0.1,0
	C9.8,10,9.9,10,10,9.9c0.2-0.1,0.5-0.2,0.8-0.4c0.6-0.4,1-0.9,1-1.3c0-0.4-0.2-0.8-0.4-1.2C11,6.7,10.7,6.5,10.2,6.4z M9.1,14.5
	c0-0.5,0.4-0.9,0.9-0.9h0c0.5,0,0.9,0.4,0.9,0.9c0,0.5-0.4,0.9-0.9,0.9h0C9.5,15.5,9.1,15,9.1,14.5z"/>
</svg>
