<?xml version="1.0" encoding="utf-8"?>
<!-- Generator: Adobe Illustrator 26.0.3, SVG Export Plug-In . SVG Version: 6.00 Build 0)  -->
<svg version="1.1" id="Layer_1" xmlns="http://www.w3.org/2000/svg" xmlns:xlink="http://www.w3.org/1999/xlink" x="0px" y="0px"
	 viewBox="0 0 22 22" style="enable-background:new 0 0 22 22;" xml:space="preserve">
<style type="text/css">
	.st0{fill:#1D1D1B;}
</style>
<path class="st0" d="M11,22C4.9,22,0,17.1,0,11S4.9,0,11,0s11,4.9,11,11S17.1,22,11,22z M11,2c-5,0-9,4-9,9c0,5,4,9,9,9c5,0,9-4,9-9
	C20,6,16,2,11,2z M15,16c-0.3,0-0.6-0.1-0.8-0.4c0,0-1.3-1.6-3.2-1.6c-1.9,0-3.2,1.6-3.2,1.6c-0.3,0.4-1,0.5-1.4,0.2
	c-0.4-0.3-0.5-1-0.2-1.4C6.3,14.3,8,12,11,12s4.7,2.3,4.8,2.4c0.3,0.4,0.2,1.1-0.2,1.4C15.4,15.9,15.2,16,15,16z M14,9
	c-0.6,0-1-0.4-1-1s0.4-1,1-1h0c0.6,0,1,0.4,1,1S14.6,9,14,9z M8,9C7.5,9,7,8.6,7,8s0.4-1,1-1h0c0.6,0,1,0.4,1,1S8.6,9,8,9z"/>
</svg>
