<?xml version="1.0" encoding="utf-8"?>
<!-- Generator: Adobe Illustrator 26.2.1, SVG Export Plug-In . SVG Version: 6.00 Build 0)  -->
<svg version="1.1" id="Layer_1" xmlns="http://www.w3.org/2000/svg" xmlns:xlink="http://www.w3.org/1999/xlink" x="0px" y="0px"
	 viewBox="0 0 20 20" style="enable-background:new 0 0 20 20;" xml:space="preserve">
<style type="text/css">
	.st0{fill-rule:evenodd;clip-rule:evenodd;fill:#231F20;}
</style>
<path class="st0" d="M9,2C5.1,2,2,5.1,2,9s3.1,7,7,7c1.9,0,3.6-0.7,4.9-2c0,0,0.1-0.1,0.1-0.1c0,0,0.1-0.1,0.1-0.1
	c1.2-1.3,2-3,2-4.9C16,5.1,12.9,2,9,2z M16,14.6c1.2-1.5,2-3.5,2-5.6c0-5-4-9-9-9C4,0,0,4,0,9c0,5,4,9,9,9c2.1,0,4.1-0.7,5.6-2
	l3.7,3.7c0.4,0.4,1,0.4,1.4,0c0.4-0.4,0.4-1,0-1.4L16,14.6z"/>
</svg>
