<?xml version="1.0" encoding="utf-8"?>
<!-- Generator: Adobe Illustrator 26.2.1, SVG Export Plug-In . SVG Version: 6.00 Build 0)  -->
<svg version="1.1" id="Layer_1" xmlns="http://www.w3.org/2000/svg" xmlns:xlink="http://www.w3.org/1999/xlink" x="0px" y="0px"
	 viewBox="0 0 20 20" style="enable-background:new 0 0 20 20;" xml:space="preserve">
<style type="text/css">
	.st0{fill-rule:evenodd;clip-rule:evenodd;fill:#231F20;}
</style>
<path class="st0" d="M19.7,18.3L16,14.6c1.2-1.5,2-3.5,2-5.6c0-5-4-9-9-9S0,4,0,9s4,9,9,9c2.1,0,4.1-0.7,5.6-2l3.7,3.7
	c0.4,0.4,1,0.4,1.4,0C20.1,19.3,20.1,18.7,19.7,18.3z M14.1,13.8L14,13.9L13.9,14c-1.3,1.3-3,2-4.9,2c-3.9,0-7-3.1-7-7s3.1-7,7-7
	s7,3.1,7.1,6.9C16.1,10.8,15.3,12.5,14.1,13.8z"/>
</svg>
