<?xml version="1.0" encoding="utf-8"?>
<!-- Generator: Adobe Illustrator 26.2.1, SVG Export Plug-In . SVG Version: 6.00 Build 0)  -->
<svg version="1.1" id="Layer_1" xmlns="http://www.w3.org/2000/svg" xmlns:xlink="http://www.w3.org/1999/xlink" x="0px" y="0px"
	 viewBox="0 0 20 20" style="enable-background:new 0 0 20 20;" xml:space="preserve">
<style type="text/css">
	.st0{fill-rule:evenodd;clip-rule:evenodd;fill:#333239;}
</style>
<path class="st0" d="M19.7,0.3c0.2,0.2,0.3,0.6,0.2,0.9l-6.4,18.2c-0.1,0.4-0.4,0.6-0.8,0.6c-0.4,0-0.7-0.2-0.9-0.5l-3.5-7.9
	L0.5,8.1C0.2,8,0,7.6,0,7.2c0-0.4,0.3-0.7,0.6-0.8l18.2-6.4C19.1-0.1,19.5,0,19.7,0.3z M10.2,11.1l2.4,5.5l4.3-12.2L10.2,11.1z
	 M15.6,3.1L3.4,7.4l5.5,2.4L15.6,3.1z"/>
</svg>
