<?xml version="1.0" encoding="utf-8"?>
<!-- Generator: Adobe Illustrator 26.0.3, SVG Export Plug-In . SVG Version: 6.00 Build 0)  -->
<svg version="1.1" id="Layer_1" xmlns="http://www.w3.org/2000/svg" xmlns:xlink="http://www.w3.org/1999/xlink" x="0px" y="0px"
	 viewBox="0 0 24 24" style="enable-background:new 0 0 24 24;" xml:space="preserve">
<style type="text/css">
	.st0{fill:#1D1D1B;}
</style>
<path class="st0" d="M12,8c-2.2,0-4,1.8-4,4c0,2.2,1.8,4,4,4c2.2,0,4-1.8,4-4C16,9.8,14.2,8,12,8z M12,14c-1.1,0-2-0.9-2-2
	s0.9-2,2-2c1.1,0,2,0.9,2,2S13.1,14,12,14z M20.3,15.4c0-0.1,0.1-0.2,0.2-0.3C20.7,15,20.8,15,21,15c0.8,0,1.6-0.3,2.1-0.9
	S24,12.8,24,12s-0.3-1.6-0.9-2.1C22.6,9.3,21.8,9,21,9h-0.2c-0.1,0-0.3,0-0.4-0.1c-0.1,0-0.1-0.1-0.2-0.2c0-0.1,0-0.1-0.1-0.2
	c-0.1-0.1-0.1-0.2,0-0.4c0-0.1,0.1-0.2,0.2-0.4c0.3-0.3,0.5-0.6,0.7-1c0.2-0.4,0.2-0.8,0.2-1.1s-0.1-0.8-0.2-1.1
	c-0.2-0.4-0.4-0.7-0.7-1c-0.3-0.3-0.6-0.5-1-0.7c-0.7-0.3-1.6-0.3-2.3,0c-0.4,0.2-0.7,0.4-1,0.7c-0.1,0.1-0.2,0.2-0.3,0.2
	c-0.1,0-0.3,0-0.4,0c-0.1-0.1-0.2-0.1-0.3-0.2C15,3.3,15,3.2,15,3c0-0.8-0.3-1.6-0.9-2.1C13-0.3,11-0.3,9.9,0.9C9.3,1.4,9,2.2,9,3
	v0.2c0,0.1,0,0.3-0.1,0.4c0,0.1-0.1,0.1-0.2,0.2c-0.1,0-0.1,0-0.2,0.1c-0.1,0.1-0.3,0.1-0.4,0C8,3.8,7.9,3.7,7.7,3.6
	c-0.3-0.3-0.6-0.5-1-0.7C6,2.6,5.2,2.6,4.5,2.9c-0.4,0.2-0.7,0.4-1,0.6C3.2,3.9,3,4.2,2.9,4.6C2.7,4.9,2.6,5.3,2.6,5.7
	s0.1,0.8,0.2,1.1c0.2,0.4,0.4,0.7,0.7,1C3.6,8,3.7,8.1,3.7,8.2c0,0.1,0,0.3-0.1,0.4c0,0.1-0.1,0.2-0.2,0.3C3.3,9,3.2,9.1,3,9.1
	c-0.8,0-1.6,0.3-2.1,0.9C0.3,10.5,0,11.3,0,12.1s0.3,1.6,0.9,2.1c0.6,0.6,1.3,0.9,2.1,0.9h0.2c0.1,0,0.2,0,0.4,0.1
	c0.1,0.1,0.2,0.2,0.2,0.3c0.1,0.1,0.1,0.3,0,0.4c0,0.1-0.1,0.2-0.2,0.4c-0.3,0.3-0.5,0.6-0.7,1c-0.2,0.4-0.2,0.8-0.2,1.1
	s0.1,0.8,0.2,1.1c0.2,0.4,0.4,0.7,0.7,1c0.3,0.3,0.6,0.5,1,0.6c0.7,0.3,1.6,0.3,2.3,0c0.4-0.2,0.7-0.4,1-0.7
	c0.1-0.1,0.2-0.2,0.3-0.2c0.1,0,0.3,0,0.4,0.1c0.1,0,0.2,0.1,0.3,0.2C9,20.7,9.1,20.8,9.1,21c0,0.8,0.3,1.6,0.9,2.1
	c0.6,0.6,1.3,0.9,2.1,0.9s1.6-0.3,2.1-0.9s0.9-1.3,0.9-2.1v-0.2c0-0.1,0-0.2,0.1-0.4c0.1-0.1,0.2-0.2,0.3-0.2c0.1-0.1,0.2-0.1,0.4,0
	c0.1,0,0.2,0.1,0.4,0.2c0.3,0.3,0.6,0.5,1,0.7c0.7,0.3,1.6,0.3,2.3,0c0.4-0.2,0.7-0.4,1-0.7c0.3-0.3,0.5-0.6,0.6-1
	c0.2-0.4,0.2-0.8,0.2-1.2s-0.1-0.8-0.2-1.1c-0.2-0.4-0.4-0.7-0.7-1c-0.1-0.1-0.2-0.2-0.2-0.3C20.2,15.7,20.3,15.5,20.3,15.4
	C20.3,15.4,20.3,15.4,20.3,15.4z M19.5,13.4c-0.4,0.3-0.8,0.7-1,1.2c-0.2,0.5-0.3,1-0.2,1.5c0.1,0.5,0.3,1,0.8,1.4
	c0.1,0.1,0.2,0.2,0.2,0.3c0,0.1,0.1,0.2,0.1,0.4s0,0.3-0.1,0.4c-0.1,0.1-0.1,0.2-0.2,0.3c-0.1,0.1-0.2,0.2-0.3,0.2
	c-0.2,0.1-0.5,0.1-0.8,0c-0.1-0.1-0.2-0.1-0.4-0.3c-0.4-0.4-0.9-0.6-1.4-0.7c-0.5-0.1-1.1,0-1.5,0.2c-0.5,0.2-0.9,0.5-1.2,1
	c-0.3,0.4-0.4,0.9-0.4,1.5V21c0,0.3-0.1,0.5-0.3,0.7c-0.4,0.4-1,0.4-1.4,0c-0.2-0.2-0.3-0.4-0.3-0.7c0,0,0-0.1,0-0.1
	c0-0.5-0.2-1-0.5-1.5c-0.3-0.4-0.7-0.8-1.2-0.9c-0.3-0.2-0.7-0.2-1.1-0.2c-0.2,0-0.3,0-0.5,0c-0.5,0.1-1,0.3-1.4,0.8
	c-0.1,0.1-0.2,0.2-0.3,0.2c-0.2,0.1-0.5,0.1-0.8,0c-0.1-0.1-0.2-0.1-0.3-0.2c-0.1-0.1-0.2-0.2-0.2-0.3c0-0.1-0.1-0.3-0.1-0.4
	s0-0.3,0.1-0.4c0.1-0.1,0.1-0.2,0.2-0.3c0,0,0.1-0.1,0.1-0.1c0.4-0.4,0.6-0.9,0.7-1.4c0.1-0.5,0-1.1-0.2-1.5c-0.2-0.5-0.5-0.9-1-1.2
	c-0.4-0.3-0.9-0.4-1.5-0.4H3c-0.3,0-0.5-0.1-0.7-0.3C2.1,12.6,2,12.3,2,12.1s0.1-0.5,0.3-0.7c0.2-0.2,0.4-0.3,0.7-0.3
	c0,0,0.1,0,0.1,0c0.5,0,1-0.2,1.5-0.5C5,10.3,5.4,9.8,5.5,9.4c0.2-0.5,0.3-1,0.2-1.5c-0.1-0.5-0.3-1-0.8-1.4
	C4.8,6.3,4.8,6.2,4.7,6.1C4.6,6,4.6,5.8,4.6,5.7c0-0.1,0-0.3,0.1-0.4C4.8,5.2,4.8,5.1,4.9,5C5,4.9,5.1,4.8,5.2,4.8
	c0.2-0.1,0.5-0.1,0.8,0c0.1,0.1,0.2,0.1,0.4,0.3c0.4,0.4,0.9,0.6,1.4,0.7c0.5,0.1,0.9,0,1.3-0.1c0.1,0,0.2,0,0.3-0.1
	c0.5-0.2,0.9-0.5,1.2-1C10.8,4.2,11,3.7,11,3.2V3c0-0.3,0.1-0.5,0.3-0.7c0.4-0.4,1-0.4,1.4,0C12.9,2.5,13,2.7,13,3.1
	c0,0.5,0.2,1,0.4,1.5c0.3,0.4,0.7,0.8,1.2,1c0.5,0.2,1,0.3,1.5,0.2c0.5-0.1,1-0.3,1.4-0.8c0.1-0.1,0.2-0.2,0.3-0.2
	c0.2-0.1,0.5-0.1,0.8,0c0.1,0.1,0.2,0.1,0.3,0.2c0.1,0.1,0.2,0.2,0.2,0.3c0.1,0.1,0.1,0.3,0.1,0.4s0,0.3-0.1,0.4
	c-0.1,0.1-0.1,0.2-0.3,0.4c-0.4,0.4-0.6,0.9-0.7,1.4c-0.1,0.5,0,0.9,0.1,1.3c0,0.1,0,0.2,0.1,0.3c0.2,0.5,0.5,0.9,1,1.2
	c0.4,0.3,0.9,0.4,1.5,0.4H21c0.3,0,0.5,0.1,0.7,0.3c0.2,0.2,0.3,0.4,0.3,0.7s-0.1,0.5-0.3,0.7c-0.2,0.2-0.4,0.3-0.8,0.3
	C20.4,13,19.9,13.2,19.5,13.4z"/>
</svg>
