<?xml version="1.0" encoding="utf-8"?>
<!-- Generator: Adobe Illustrator 26.2.1, SVG Export Plug-In . SVG Version: 6.00 Build 0)  -->
<svg version="1.1" id="Layer_1" xmlns="http://www.w3.org/2000/svg" xmlns:xlink="http://www.w3.org/1999/xlink" x="0px" y="0px"
	 viewBox="0 0 20 20" style="enable-background:new 0 0 20 20;" xml:space="preserve">
<style type="text/css">
	.st0{fill-rule:evenodd;clip-rule:evenodd;fill:#231F20;}
</style>
<path class="st0" d="M10,0c0.2,0,0.5,0.1,0.6,0.3l3.6,3.6c0.4,0.4,0.4,0.9,0,1.3c-0.4,0.4-0.9,0.4-1.3,0l-2.1-2.1v9.6
	c0,0.5-0.4,0.9-0.9,0.9s-0.9-0.4-0.9-0.9V3.1L7,5.2c-0.4,0.4-0.9,0.4-1.3,0c-0.4-0.4-0.4-0.9,0-1.3l3.6-3.6C9.5,0.1,9.8,0,10,0z
	 M2.7,9.1c0.5,0,0.9,0.4,0.9,0.9v7.3c0,0.2,0.1,0.5,0.3,0.6c0.2,0.2,0.4,0.3,0.6,0.3h10.9c0.2,0,0.5-0.1,0.6-0.3s0.3-0.4,0.3-0.6V10
	c0-0.5,0.4-0.9,0.9-0.9c0.5,0,0.9,0.4,0.9,0.9v7.3c0,0.7-0.3,1.4-0.8,1.9S16.2,20,15.5,20H4.5c-0.7,0-1.4-0.3-1.9-0.8
	c-0.5-0.5-0.8-1.2-0.8-1.9V10C1.8,9.5,2.2,9.1,2.7,9.1z"/>
</svg>
