<svg width="16" height="22" viewBox="0 0 16 22" fill="none" xmlns="http://www.w3.org/2000/svg">
<path fill-rule="evenodd" clip-rule="evenodd" d="M3 2C2.44772 2 2 2.44772 2 3V19C2 19.5523 2.44771 20 3 20H13C13.5523 20 14 19.5523 14 19V3C14 2.44772 13.5523 2 13 2H3ZM0 3C0 1.34315 1.34315 0 3 0H13C14.6569 0 16 1.34315 16 3V19C16 20.6569 14.6569 22 13 22H3C1.34315 22 0 20.6569 0 19V3ZM7 17C7 16.4477 7.44772 16 8 16H8.01C8.56228 16 9.01 16.4477 9.01 17C9.01 17.5523 8.56228 18 8.01 18H8C7.44772 18 7 17.5523 7 17Z" fill="#2362FB"/>
</svg>
