<?xml version="1.0" encoding="utf-8"?>
<!-- Generator: Adobe Illustrator 26.0.3, SVG Export Plug-In . SVG Version: 6.00 Build 0)  -->
<svg version="1.1" id="Layer_1" xmlns="http://www.w3.org/2000/svg" xmlns:xlink="http://www.w3.org/1999/xlink" x="0px" y="0px"
	 viewBox="0 0 22 22" style="enable-background:new 0 0 22 22;" xml:space="preserve">
<style type="text/css">
	.st0{fill:#1D1D1B;}
</style>
<path class="st0" d="M21.2,0.8c-0.6-0.6-1.6-0.9-2.4-0.7L14.4,1c-0.8,0.2-1.5,0.4-2.1,0.8c0,0,0,0,0,0c-0.6,0.3-1.2,0.8-1.7,1.3
	L8.1,5.6L5,5.6c-0.6,0-1.1,0.2-1.5,0.6L0.5,9.3c-0.4,0.4-0.5,1-0.4,1.5c0.2,0.5,0.6,1,1.1,1.1l3,0.7c-0.1,1.1,0.2,2.1,0.8,3
	l-1.2,1.2c-0.4,0.4-0.4,1,0,1.4c0.2,0.2,0.5,0.3,0.7,0.3s0.5-0.1,0.7-0.3L6.4,17c0.8,0.5,1.7,0.8,2.7,0.8c0.1,0,0.2,0,0.3,0l0.7,3
	c0.1,0.5,0.5,1,1.1,1.1c0.1,0,0.3,0.1,0.4,0.1c0.4,0,0.8-0.2,1.1-0.5l3.1-3.1c0.4-0.4,0.6-0.9,0.6-1.5l0-3.1l2.5-2.5
	c0.5-0.5,0.9-1.1,1.3-1.7c0,0,0,0,0,0C20.6,9,20.9,8.3,21,7.6l0.9-4.3C22.1,2.3,21.9,1.4,21.2,0.8z M19.2,2c0,0,0.1,0,0.1,0
	c0.2,0,0.4,0.1,0.5,0.2c0.1,0.1,0.2,0.3,0.2,0.6l-0.9,4.3c-1.2-1.6-2.6-3-4.2-4.2L19.2,2z M5,7.6l1.2,0c-0.7,0.9-1.2,1.9-1.6,3.1
	l-2.1-0.5L5,7.6z M11.9,19.6l-0.5-2.1c1.1-0.3,2.1-0.9,3-1.6l0,1.2L11.9,19.6z M14,13.6c-1.2,1.2-2.8,2-4.5,2.2
	c-0.6,0.1-1.1,0-1.6-0.2l5.2-5.2c0.4-0.4,0.4-1,0-1.4s-1-0.4-1.4,0l-5.2,5.2c-0.2-0.5-0.3-1.1-0.2-1.7c0.2-1.7,1-3.3,2.2-4.5L12,4.5
	c0.2-0.2,0.5-0.5,0.8-0.7c2.1,1.5,3.9,3.3,5.4,5.4C18,9.5,17.8,9.8,17.5,10L14,13.6z"/>
</svg>
