<?xml version="1.0" encoding="utf-8"?>
<!-- Generator: Adobe Illustrator 26.2.1, SVG Export Plug-In . SVG Version: 6.00 Build 0)  -->
<svg version="1.1" id="Layer_1" xmlns="http://www.w3.org/2000/svg" xmlns:xlink="http://www.w3.org/1999/xlink" x="0px" y="0px"
	 viewBox="0 0 21 20" style="enable-background:new 0 0 21 20;" xml:space="preserve">
<style type="text/css">
	.st0{fill-rule:evenodd;clip-rule:evenodd;fill:#333239;}
</style>
<path class="st0" d="M10.5,1.8C6,1.8,2.3,5.5,2.3,10c0,4.5,3.7,8.2,8.2,8.2c4.5,0,8.2-3.7,8.2-8.2C18.7,5.5,15,1.8,10.5,1.8z
	 M0.5,10c0-5.5,4.5-10,10-10c5.5,0,10,4.5,10,10c0,5.5-4.5,10-10,10C5,20,0.5,15.5,0.5,10z M10.5,5.5C8,5.5,6,7.5,6,10
	c0,2.5,2,4.5,4.5,4.5c2.5,0,4.5-2,4.5-4.5C15,7.5,13,5.5,10.5,5.5z M4.1,10c0-3.5,2.8-6.4,6.4-6.4c3.5,0,6.4,2.8,6.4,6.4
	c0,3.5-2.8,6.4-6.4,6.4C7,16.4,4.1,13.5,4.1,10z M10.5,9.1C10,9.1,9.6,9.5,9.6,10c0,0.5,0.4,0.9,0.9,0.9c0.5,0,0.9-0.4,0.9-0.9
	C11.4,9.5,11,9.1,10.5,9.1z M7.8,10c0-1.5,1.2-2.7,2.7-2.7c1.5,0,2.7,1.2,2.7,2.7c0,1.5-1.2,2.7-2.7,2.7C9,12.7,7.8,11.5,7.8,10z"/>
</svg>
