<?xml version="1.0" encoding="utf-8"?>
<!-- Generator: Adobe Illustrator 26.2.1, SVG Export Plug-In . SVG Version: 6.00 Build 0)  -->
<svg version="1.1" id="Layer_1" xmlns="http://www.w3.org/2000/svg" xmlns:xlink="http://www.w3.org/1999/xlink" x="0px" y="0px"
	 viewBox="0 0 20.9 20" style="enable-background:new 0 0 20.9 20;" xml:space="preserve">
<style type="text/css">
	.st0{fill-rule:evenodd;clip-rule:evenodd;fill:#231F20;}
</style>
<path class="st0" d="M10.5,1.8c-4.5,0-8.2,3.7-8.2,8.2c0,4.5,3.7,8.2,8.2,8.2c4.5,0,8.2-3.7,8.2-8.2C18.6,5.5,15,1.8,10.5,1.8z
	 M0.5,10c0-5.5,4.5-10,10-10c5.5,0,10,4.5,10,10c0,5.5-4.5,10-10,10C4.9,20,0.5,15.5,0.5,10z M6.8,7.3c0-0.5,0.4-0.9,0.9-0.9h5.5
	c0.5,0,0.9,0.4,0.9,0.9v5.5c0,0.5-0.4,0.9-0.9,0.9H7.7c-0.5,0-0.9-0.4-0.9-0.9V7.3z M8.6,8.2v3.6h3.6V8.2H8.6z"/>
</svg>
