<?xml version="1.0" encoding="utf-8"?>
<!-- Generator: Adobe Illustrator 26.2.1, SVG Export Plug-In . SVG Version: 6.00 Build 0)  -->
<svg version="1.1" id="Layer_1" xmlns="http://www.w3.org/2000/svg" xmlns:xlink="http://www.w3.org/1999/xlink" x="0px" y="0px"
	 viewBox="0 0 20 20" style="enable-background:new 0 0 20 20;" xml:space="preserve">
<style type="text/css">
	.st0{fill:#231F20;}
</style>
<path class="st0" d="M10.9,14.5V9.1c0-0.5,0.4-0.9,0.9-0.9c0.5,0,0.9,0.4,0.9,0.9v5.5c0,0.5-0.4,0.9-0.9,0.9
	C11.3,15.5,10.9,15,10.9,14.5z M8.2,15.5c0.5,0,0.9-0.4,0.9-0.9V9.1c0-0.5-0.4-0.9-0.9-0.9c-0.5,0-0.9,0.4-0.9,0.9v5.5
	C7.3,15,7.7,15.5,8.2,15.5z M18.1,3.6h-3.6V2.7c0-0.7-0.3-1.4-0.8-1.9C13.2,0.3,12.5,0,11.8,0H8.2C7.5,0,6.8,0.3,6.3,0.8
	S5.5,2,5.5,2.7v0.9H1.9C1.4,3.6,1,4,1,4.5s0.4,0.9,0.9,0.9h0.9v11.8c0,0.7,0.3,1.4,0.8,1.9C4.1,19.7,4.8,20,5.5,20h9
	c0.7,0,1.4-0.3,1.9-0.8c0.5-0.5,0.8-1.2,0.8-1.9V5.5h0.9C18.6,5.5,19,5,19,4.5S18.6,3.6,18.1,3.6z M7.3,2.3c0-0.2,0.1-0.5,0.3-0.6
	C7.7,1.5,8,1.4,8.2,1.4h3.6c0.2,0,0.5,0.1,0.6,0.3c0.2,0.2,0.3,0.4,0.3,0.6v0.9H7.3V2.3z M15.4,16.9c0,0.2-0.1,0.5-0.3,0.6
	c-0.2,0.2-0.4,0.3-0.6,0.3h-9c-0.2,0-0.5-0.1-0.6-0.3c-0.2-0.2-0.3-0.4-0.3-0.6V5h10.8V16.9z"/>
</svg>
