<?xml version="1.0" encoding="utf-8"?>
<!-- Generator: Adobe Illustrator 26.0.3, SVG Export Plug-In . SVG Version: 6.00 Build 0)  -->
<svg version="1.1" id="Layer_1" xmlns="http://www.w3.org/2000/svg" xmlns:xlink="http://www.w3.org/1999/xlink" x="0px" y="0px"
	 viewBox="0 0 22 22" style="enable-background:new 0 0 22 22;" xml:space="preserve">
<style type="text/css">
	.st0{fill:#1D1D1B;}
</style>
<path class="st0" d="M19,20H3c-0.8,0-1.6-0.3-2.1-0.9C0.3,18.6,0,17.8,0,17v-6c0-0.1,0-0.2,0-0.2s0-0.2,0.1-0.2l3.4-6.9
	c0.2-0.5,0.6-0.9,1.1-1.2C5.1,2.2,5.7,2,6.2,2h9.5c0.6,0,1.1,0.2,1.6,0.5c0.5,0.3,0.9,0.7,1.1,1.2l3.4,6.9c0,0.1,0.1,0.2,0.1,0.2
	s0,0.2,0,0.2v6c0,0.8-0.3,1.6-0.9,2.1S19.8,20,19,20z M2,12v5c0,0.3,0.1,0.5,0.3,0.7C2.5,17.9,2.7,18,3,18h16c0.3,0,0.5-0.1,0.7-0.3
	S20,17.3,20,17v-5h-4.5l-1.7,2.6C13.6,14.8,13.3,15,13,15H9c-0.3,0-0.6-0.2-0.8-0.4L6.5,12H2z M9.5,13h2.9l1.7-2.6
	c0.2-0.3,0.5-0.4,0.8-0.4h4.4l-2.7-5.4c-0.1-0.2-0.2-0.3-0.4-0.4C16.1,4.1,15.9,4,15.8,4H6.2C6.1,4,5.9,4.1,5.7,4.1S5.4,4.4,5.3,4.6
	L2.6,10H7c0.3,0,0.6,0.2,0.8,0.4L9.5,13z"/>
</svg>
