<?xml version="1.0" encoding="utf-8"?>
<!-- Generator: Adobe Illustrator 26.2.1, SVG Export Plug-In . SVG Version: 6.00 Build 0)  -->
<svg version="1.1" id="Layer_1" xmlns="http://www.w3.org/2000/svg" xmlns:xlink="http://www.w3.org/1999/xlink" x="0px" y="0px"
	 viewBox="0 0 20 20" style="enable-background:new 0 0 20 20;" xml:space="preserve">
<path d="M18.4,20c-0.3,0-0.5-0.2-0.5-0.5v-2.1c0-1-0.4-1.9-1.1-2.6c-0.7-0.7-1.6-1.1-2.6-1.1H5.8c-1,0-1.9,0.4-2.6,1.1
	c-0.7,0.7-1.1,1.6-1.1,2.6v2.1c0,0.3-0.2,0.5-0.5,0.5s-0.5-0.2-0.5-0.5v-2.1c0-1.3,0.5-2.5,1.4-3.4c0.9-0.9,2.1-1.4,3.4-1.4h8.4
	c1.3,0,2.5,0.5,3.4,1.4c0.9,0.9,1.4,2.1,1.4,3.4v2.1C18.9,19.8,18.7,20,18.4,20z M10,9.5c-2.6,0-4.7-2.1-4.7-4.7S7.4,0,10,0
	c2.6,0,4.7,2.1,4.7,4.7S12.6,9.5,10,9.5z M10,1.1c-2,0-3.7,1.6-3.7,3.7S8,8.4,10,8.4s3.7-1.6,3.7-3.7S12,1.1,10,1.1z"/>
</svg>
