<svg width="26" height="23" viewBox="0 0 26 23" fill="none" xmlns="http://www.w3.org/2000/svg">
<path fill-rule="evenodd" clip-rule="evenodd" d="M10.3333 1.83329C7.89408 1.83329 5.91667 3.8107 5.91667 6.24996C5.91667 8.68922 7.89408 10.6666 10.3333 10.6666C12.7726 10.6666 14.75 8.68922 14.75 6.24996C14.75 3.8107 12.7726 1.83329 10.3333 1.83329ZM4.25 6.24996C4.25 2.89023 6.9736 0.166626 10.3333 0.166626C13.6931 0.166626 16.4167 2.89023 16.4167 6.24996C16.4167 9.60969 13.6931 12.3333 10.3333 12.3333C6.9736 12.3333 4.25 9.60969 4.25 6.24996ZM21.4226 14.4107C21.748 14.7361 21.748 15.2638 21.4226 15.5892L19.3452 17.6666H24.3333C24.7936 17.6666 25.1667 18.0397 25.1667 18.5C25.1667 18.9602 24.7936 19.3333 24.3333 19.3333H19.3452L21.4226 21.4107C21.748 21.7361 21.748 22.2638 21.4226 22.5892C21.0972 22.9147 20.5695 22.9147 20.2441 22.5892L16.7441 19.0892C16.4186 18.7638 16.4186 18.2361 16.7441 17.9107L20.2441 14.4107C20.5695 14.0853 21.0972 14.0853 21.4226 14.4107ZM7.25555 14.7499C7.30854 14.7499 7.36225 14.75 7.41667 14.75H12.6667C13.1269 14.75 13.5 15.1231 13.5 15.5833C13.5 16.0435 13.1269 16.4166 12.6667 16.4166H7.41667C5.72788 16.4166 5.06823 16.4257 4.55391 16.5817C3.32877 16.9533 2.37004 17.9121 1.9984 19.1372C1.84238 19.6515 1.83334 20.3112 1.83334 22C1.83334 22.4602 1.46024 22.8333 1 22.8333C0.539764 22.8333 0.166668 22.4602 0.166668 22C0.166668 21.9455 0.166658 21.8918 0.166647 21.8389C0.166348 20.3654 0.166159 19.4358 0.403498 18.6534C0.936724 16.8956 2.31229 15.52 4.0701 14.9868C4.85249 14.7494 5.78208 14.7496 7.25555 14.7499Z" fill="#2362FB"/>
</svg>
