<?xml version="1.0" encoding="utf-8"?>
<!-- Generator: Adobe Illustrator 26.4.1, SVG Export Plug-In . SVG Version: 6.00 Build 0)  -->
<svg version="1.1" id="Layer_1" xmlns="http://www.w3.org/2000/svg" xmlns:xlink="http://www.w3.org/1999/xlink" x="0px" y="0px"
	 viewBox="0 0 32 32" style="enable-background:new 0 0 32 32;" xml:space="preserve">
<path d="M16,32L16,32L16,32C16,32,16,32,16,32C7.2,32,0,24.8,0,16C0,7.2,7.2,0,16,0c0,0,0,0,0,0l0,0l0,0c0,0,0,0,0,0
	c8.8,0,16,7.2,16,16C32,24.8,24.8,32,16,32C16,32,16,32,16,32z M23,17.1c-0.3,4.5-1.9,8.8-4.5,12.4c6-1.1,10.7-6.2,11.2-12.4H23z
	 M2.3,17.1c0.5,6.2,5.2,11.3,11.2,12.4c-2.6-3.6-4.2-7.9-4.5-12.4H2.3z M11.2,17.1c0.3,4.4,2,8.6,4.8,12.1c2.8-3.4,4.5-7.6,4.8-12.1
	H11.2z M23,14.9h6.7C29.2,8.7,24.6,3.6,18.5,2.5C21.2,6.1,22.7,10.4,23,14.9z M11.2,14.9h9.6c-0.3-4.4-2-8.6-4.8-12.1
	C13.2,6.3,11.5,10.5,11.2,14.9z M2.3,14.9H9c0.3-4.5,1.9-8.8,4.5-12.4C7.4,3.6,2.8,8.7,2.3,14.9z"/>
</svg>
