<?xml version="1.0" encoding="utf-8"?>
<!-- Generator: Adobe Illustrator 26.1.0, SVG Export Plug-In . SVG Version: 6.00 Build 0)  -->
<svg version="1.1" id="Layer_1" xmlns="http://www.w3.org/2000/svg" xmlns:xlink="http://www.w3.org/1999/xlink" x="0px" y="0px"
	 viewBox="0 0 120 42" style="enable-background:new 0 0 120 42;" xml:space="preserve">
<style type="text/css">
	.st0{fill:#2362FB;}
</style>
<path class="st0" d="M23.5,4.4L23.5,4.4L23.5,4.4L23.5,4.4z M23.4,4.5L23.4,4.5L23.4,4.5L23.4,4.5z M35.2,9.5
	c4.7,6,5.5,14.3,2.2,21.2C34.1,37.6,27.2,42,19.7,42v-0.3c0,0,0,0,0,0V42h0v0C9.8,42,1.5,34.5,0.2,24.5l0.3,0v0l-0.3,0
	c-1.3-10,4.9-19.4,14.4-22l0,0.2l0,0l0-0.2h0c0.2-0.1,0.5,0,0.6,0.2L15,2.9c0,0,0,0,0,0l0.2-0.2L16,3.8l0,0c0.1,0.2,0.1,0.5,0,0.7
	c-1.1,1.8-0.8,4.2,0.8,5.7l-0.2,0.2l0.2-0.2c0.2,0.1,0.2,0.4,0.2,0.6l0,0l-0.2,1.2l0,0v0l0,0c0,0.2-0.2,0.4-0.4,0.5l-0.1-0.3
	c0,0,0,0,0,0l0.1,0.3c-4.1,1.5-6.8,5.5-6.6,9.9l-0.3,0c0.1,0,0.3,0,0.3,0c0.2,5.4,4.7,9.7,10,9.7l0,0.3c0,0,0,0,0,0c0,0,0,0,0,0
	l0-0.3c5.4-0.1,9.8-4.6,9.8-10.1c0-4.3-2.6-8.1-6.6-9.5l0,0c-0.2-0.1-0.3-0.2-0.4-0.5l0,0v0l0.1,0l0.2,0h0l-0.3,0.1l-0.2-1.2
	c0-0.2,0-0.4,0.2-0.6l0.2,0.2l-0.2-0.2c1.6-1.4,1.9-3.8,0.8-5.7l0,0l0.2-0.1l0,0l-0.1,0.1l0,0l-0.1,0.1c-0.1-0.2-0.1-0.5,0-0.7
	l0.7-1.1l0.2,0.2c0,0,0,0,0,0l-0.2-0.2c0.1-0.2,0.4-0.3,0.6-0.2l0,0h0l0,0C28.9,3.6,32.5,6.1,35.2,9.5z M23.1,12.1
	C23.1,12.1,23.1,12.1,23.1,12.1L23.1,12.1L23.1,12.1z M16.7,10.6L16.7,10.6L16.7,10.6L16.7,10.6z M15.7,4L15.7,4L15.7,4L15.7,4z
	 M37.2,21.9c0-4-1.3-7.9-3.8-11.1c-2-2.5-4.6-4.5-7.6-5.7c0.5,2,0.1,4.1-1.1,5.7c4.2,2,6.9,6.3,6.9,11.1c0,6.8-5.4,12.3-12,12.3
	c-6.6,0-12-5.5-12-12.3c0-4.7,2.7-9.1,6.9-11.1c-1.2-1.6-1.6-3.7-1.1-5.7c-3,1.2-5.6,3.1-7.6,5.7h0c-4.8,6.2-5,14.8-0.7,21.3
	c4.4,6.5,12.3,9.3,19.7,7C32.2,36.7,37.2,29.8,37.2,21.9z M86.9,15.6c-1-2.2-1-4.7,0-6.9c0.5-1,1.2-1.8,2.1-2.3c1.8-1,4-1.1,5.9-0.2
	c0.7,0.3,1.2,0.8,1.7,1.4l0.2-1.7h2.1v12.5h-2.4v-1.8c-0.4,0.6-1,1.1-1.6,1.4c-0.9,0.5-1.9,0.7-2.9,0.7c-1.1,0-2.1-0.3-3-0.8
	C88.1,17.3,87.3,16.5,86.9,15.6z M88.7,12.1c0,1.3,0.3,2.3,1,3.1c0.7,0.8,1.6,1.2,2.7,1.2c1.1,0,2.1-0.4,2.8-1.2
	c0.7-0.8,1-1.8,1-3.1c0-1.3-0.4-2.3-1-3.1c-0.7-0.8-1.6-1.1-2.7-1.1c-1.1,0-2.1,0.4-2.7,1.2C89.1,9.8,88.7,10.8,88.7,12.1z
	 M103.5,17.9c1,0.6,2.2,0.8,3.3,0.8c1.5,0,2.8-0.4,3.9-1.3c1.1-0.8,1.8-2,2-3.3l0-0.2h-2.6l0,0.1c-0.1,0.7-0.6,1.3-1.1,1.7
	c-0.6,0.4-1.4,0.6-2.2,0.6c-1.2,0-2.1-0.4-2.7-1.2c-0.7-0.8-1-1.8-1-3.1c0-1.3,0.3-2.4,1-3.2c0.7-0.8,1.6-1.1,2.7-1.1
	c0.9,0,1.6,0.2,2.2,0.6c0.6,0.4,1,1,1.2,1.7l0,0.1h2.6l0-0.2c-0.2-1.3-0.9-2.5-2-3.4c-1.1-0.8-2.4-1.2-4-1.2c-1.1,0-2.3,0.3-3.3,0.8
	c-1,0.5-1.7,1.4-2.2,2.3c-0.5,1.1-0.8,2.3-0.8,3.4c0,1.3,0.3,2.5,0.8,3.5C101.7,16.5,102.5,17.4,103.5,17.9z M116.1,23.7h-0.5
	l-3.8,4.6l0,0v0.7h1.8v6.2c0,0.6,0.1,1.3,0.2,1.9c0.1,0.6,0.5,1.1,1.1,1.6c0.6,0.5,1.4,0.7,2.6,0.7c0.5,0,1,0,1.5-0.1l0.1,0v-2.2
	h-0.1c-0.1,0-0.2,0-0.4,0c-0.2,0-0.4,0-0.5,0c-0.7,0-1.2-0.2-1.5-0.5c-0.3-0.3-0.4-0.8-0.4-1.5v-6.2h3v-2.2h-3L116.1,23.7z M117,5.8
	V2.7h-0.5l-3.8,4.6l0,0V8h1.8v6.2c0,0.6,0.1,1.3,0.2,1.9c0.1,0.6,0.5,1.1,1.1,1.6c0.6,0.5,1.4,0.7,2.6,0.7c0.5,0,1,0,1.5-0.1l0.1,0
	v-2.2h-0.1c-0.1,0-0.2,0-0.4,0c-0.2,0-0.4,0-0.5,0c-0.7,0-1.2-0.2-1.5-0.5c-0.3-0.3-0.4-0.8-0.4-1.5V8h3V5.8v0H117z M74.6,23.8h-2.5
	v-18h2.1l0.2,1.9c0.4-0.6,1-1.1,1.7-1.5c0.9-0.5,1.8-0.7,2.8-0.7C80,5.5,81,5.7,82,6.3c0.9,0.6,1.6,1.4,2.1,2.3
	c0.5,1.1,0.8,2.3,0.8,3.5c0,1.2-0.2,2.4-0.8,3.4c-0.5,1-1.2,1.8-2.1,2.3c-0.9,0.6-2,0.8-3.1,0.8c-0.9,0-1.8-0.2-2.7-0.6
	c-0.6-0.3-1.2-0.7-1.6-1.3V23.8z M74.8,12.2c0,1.3,0.3,2.3,1,3.1c0.7,0.7,1.6,1.1,2.7,1.1c1.1,0,2-0.4,2.7-1.2c0.7-0.8,1-1.8,1-3.1
	c0-1.3-0.4-2.3-1-3.1c-0.7-0.8-1.6-1.1-2.7-1.1c-1.1,0-2,0.4-2.7,1.2C75.1,9.8,74.8,10.9,74.8,12.2z M99.8,26.9L99.8,26.9L99.8,26.9
	L99.8,26.9z M47.8,3.6c0.5,0,1-0.2,1.3-0.5c0.3-0.3,0.5-0.8,0.5-1.3c0-0.5-0.2-0.9-0.5-1.3c-0.7-0.7-1.9-0.7-2.6,0
	C46.2,0.8,46,1.3,46,1.8c0,0.5,0.2,1,0.5,1.3C46.9,3.4,47.3,3.6,47.8,3.6L47.8,3.6z M77.5,26.6h2.1v12.5h-2.4v-1.8
	c-0.4,0.6-1,1.1-1.6,1.4c-0.9,0.5-1.9,0.7-2.9,0.7c-1.1,0-2.1-0.3-3-0.8c-0.9-0.6-1.6-1.4-2.1-2.3c-1-2.2-1-4.7,0-6.9
	c0.5-1,1.2-1.8,2.1-2.3c1.8-1,4-1.1,5.9-0.2l0,0c0.7,0.3,1.2,0.8,1.7,1.4L77.5,26.6z M77.1,32.8c0-1.3-0.4-2.3-1-3
	c-0.7-0.8-1.6-1.1-2.7-1.1c-1.1,0-2.1,0.4-2.7,1.2c-0.7,0.8-1,1.8-1,3.1c0,1.3,0.3,2.3,1,3.1c0.7,0.8,1.6,1.2,2.7,1.2
	c1.1,0,2.1-0.4,2.8-1.2C76.7,35.1,77.1,34.1,77.1,32.8z M109,35.5h2.5l0,0.2c-0.3,1.2-1,2.3-2,3c-1.1,0.7-2.3,1.1-3.8,1.1
	c-1.1,0-2.3-0.3-3.3-0.8c-0.9-0.6-1.7-1.4-2.2-2.3c-0.5-1-0.8-2.2-0.8-3.5c0-1.2,0.2-2.4,0.8-3.4c0.5-1,1.3-1.8,2.2-2.3
	c1-0.5,2.1-0.8,3.2-0.8c1.1,0,2.1,0.2,3.1,0.8c0.9,0.5,1.6,1.2,2.1,2.1c0.5,0.9,0.8,2,0.7,3.1c0,0.5,0,1-0.1,1.4l0,0.1h-9.4
	c0.1,1.1,0.4,1.9,1.1,2.6c0.7,0.7,1.6,1,2.7,1c0.7,0,1.5-0.2,2.1-0.5C108.3,36.7,108.7,36.2,109,35.5L109,35.5z M101.9,32h6.9
	c0-1-0.4-1.8-0.9-2.4c-0.6-0.6-1.4-0.9-2.4-0.9c-1,0-1.9,0.3-2.6,0.9C102.3,30.3,101.9,31.1,101.9,32z M60.8,26.2L60.8,26.2
	c-0.9,0-1.7,0.2-2.4,0.7c-0.6,0.4-1.1,0.9-1.4,1.6c-0.3-0.6-0.8-1.2-1.4-1.6c-0.7-0.5-1.6-0.7-2.5-0.7c-0.7,0-1.5,0.2-2.1,0.5
	c-0.5,0.3-0.9,0.7-1.3,1.1l-0.1-1.3h-2.3v12.6h2.5v-7.7c0-0.8,0.2-1.5,0.7-2.1c0.5-0.6,1.2-0.9,1.9-0.9c0.8,0,1.4,0.2,1.9,0.8
	c0.4,0.5,0.7,1.2,0.7,2.1v7.7h2.5v-7.6c0-0.8,0.2-1.5,0.7-2.1c0.5-0.6,1.2-0.9,2-0.9c0.8,0,1.4,0.2,1.8,0.7c0.4,0.5,0.7,1.2,0.7,2.2
	v7.7h2.5v-8.2c0-1.5-0.4-2.6-1.2-3.5C63.2,26.6,62.1,26.2,60.8,26.2z M49.1,6.1h-2.5v12.5h2.5V6.1z M99.8,26.9h-3.2l-5.3,5.7V21.3
	h-2.5v18.1h2.5v-3.6l2.2-2.4l3.1,5.8l0,0.1h2.9l-4.2-7.8L99.8,26.9z M87.3,26.5c-0.7,0-1.4,0.2-2,0.5c-0.4,0.3-0.8,0.6-1,1.1
	l-0.2-1.5h-2.3v12.5h2.5v-6.7c0-1.1,0.3-2,0.8-2.6c0.6-0.6,1.4-0.9,2.4-0.9c0.3,0,0.6,0,0.8,0.1l0.2,0v-2.3l-0.1,0
	C88.1,26.5,87.7,26.5,87.3,26.5z M67.5,18.4H70v0v-8.3c0-1.5-0.4-2.6-1.2-3.4c-0.8-0.8-1.9-1.2-3.2-1.2c-0.9,0-1.7,0.2-2.4,0.7
	c-0.6,0.4-1.1,0.9-1.4,1.6c-0.3-0.6-0.8-1.2-1.4-1.6c-0.7-0.5-1.6-0.7-2.5-0.7c-0.7,0-1.5,0.2-2.1,0.5c-0.5,0.3-0.9,0.7-1.3,1.1
	l-0.1-1.3h-2.3v12.6h2.5v-7.7c0-0.8,0.2-1.5,0.7-2.1c0.5-0.6,1.2-0.9,1.9-0.9c0.8,0,1.4,0.2,1.9,0.8c0.4,0.5,0.7,1.2,0.7,2.1v7.8
	h2.5v-7.6c0-0.8,0.2-1.5,0.7-2.1c0.5-0.6,1.2-0.9,2-0.9c0.8,0,1.4,0.2,1.8,0.7c0.4,0.5,0.7,1.2,0.7,2.2L67.5,18.4z"/>
</svg>
